<?xml version="1.0" encoding="utf-8"?>
<!-- Generator: Adobe Illustrator 24.1.2, SVG Export Plug-In . SVG Version: 6.00 Build 0)  -->
<svg version="1.1" id="Layer_1" xmlns="http://www.w3.org/2000/svg" xmlns:xlink="http://www.w3.org/1999/xlink" x="0px" y="0px"
	 viewBox="0 0 450 450" style="enable-background:new 0 0 450 450;" xml:space="preserve">
<style type="text/css">
	.st0{fill:#FCA73E;}
	.st1{opacity:0.11;}
	.st2{fill:#FFFFFF;}
</style>
<rect class="st0" width="450" height="450"/>
<g class="st1">
	<g>
		<g>
			<path class="st2" d="M77.15,167.35c-1.42-0.8-3.29-0.87-5.56-0.21c-7.72,2.24-18.86,6.77-26.69,10.1l2.02,1.14
				c7.68-3.25,17.95-7.38,25.18-9.47c1.75-0.51,3.18-0.49,4.14,0.05c1.25,0.71,1.48,2.15,1.51,2.95c0.05,1.57-0.67,3.55-1.49,4.06
				c-0.09,0.06-0.15,0.08-0.17,0.09c-0.1-0.11-0.58-0.78-0.48-3.48c0.04-1.21-0.58-1.75-0.96-1.96c-1.45-0.82-4.03,0.23-7.51,1.81
				c-1.65,0.75-8.42,4.39-15.83,8.43l1.89,1.07c6.98-3.8,13.18-7.13,14.7-7.82c1.39-0.63,5.09-2.31,5.83-1.89
				c0,0,0.04,0.08,0.04,0.3c-0.1,2.87,0.37,4.56,1.43,5.16c0.35,0.2,1.09,0.45,2.04-0.15c1.55-0.98,2.41-3.65,2.34-5.68
				C79.53,169.83,78.64,168.19,77.15,167.35z"/>
		</g>
	</g>
	<g>
		<g>
			<path class="st2" d="M111.6,186.83c-1.49-0.84-3.35-0.76-5.11,0.22c-1.77,0.99-3.62,3.11-3.66,4.94
				c-0.02,1.13,0.57,1.63,0.92,1.83c1.06,0.6,2.75,0.13,5.16-1.44c0.17-0.11,0.26-0.12,0.27-0.13c0.75,0.43,1.22,4.46,1.4,5.97
				c0.19,1.66,0.53,8.69,0.88,16.63l1.89,1.07c-0.36-8.43-0.73-16.12-0.94-17.91c-0.44-3.79-0.87-6.54-2.32-7.37
				c-0.38-0.21-1.16-0.47-2.18,0.19c-2.43,1.58-3.2,1.39-3.21,1.42c-0.01-0.01-0.03-0.08-0.03-0.22c0.02-0.96,1.34-2.6,2.71-3.37
				c0.7-0.39,2.05-0.94,3.31-0.23c0.96,0.54,1.71,1.76,2.18,3.52c1.93,7.27,3.69,18.21,4.86,26.46l2.02,1.14
				c-1.18-8.43-3.04-20.3-5.11-28.08C114.05,189.19,113.02,187.63,111.6,186.83z"/>
		</g>
	</g>
	<g>
		<path class="st2" d="M121.5,219.2l-76.49-43.24c-1.68-0.95-3.78-0.42-4.69,1.18l-12.03,21.28c-0.91,1.6-0.28,3.68,1.4,4.62
			l31.83,18c1.66,0.94,3.72,0.43,4.65-1.12c0.56-0.72,6.08-7.8,8.16-10.74c0.08-0.11,0.85-0.16,2.18,0.56
			c1.12,0.63,1.67,1.33,1.72,1.42c-2.09,4.88-5.29,12.5-5.28,12.51c-0.91,1.6-0.28,3.68,1.4,4.62l31.83,18
			c1.68,0.95,3.78,0.42,4.68-1.18l12.03-21.28C123.81,222.22,123.18,220.15,121.5,219.2z M121.3,222.92l-12.03,21.28
			c-0.4,0.72-1.38,0.93-2.17,0.49l-31.83-18c-0.79-0.45-1.11-1.4-0.66-2.21c0,0,3.23-7.68,5.32-12.59c0.59-1.39-0.98-2.89-2.51-3.75
			l-0.11-0.06c-1.98-1.08-3.7-1.07-4.48,0.04c-2.12,3-8.09,10.65-8.15,10.72l-0.08,0.11c-0.4,0.72-1.38,0.93-2.17,0.49l-31.83-18
			c-0.79-0.45-1.11-1.4-0.7-2.11l12.03-21.28c0.41-0.72,1.38-0.94,2.17-0.49l76.49,43.24C121.39,221.25,121.7,222.2,121.3,222.92z"
			/>
	</g>
	<g>
		<path class="st2" d="M70.89,195.22l-23.9-13.51c-1.68-0.95-3.81-0.36-4.79,1.38l-6.95,14.48c-0.95,1.68-0.36,3.81,1.32,4.76
			l22.03,12.45c1.68,0.95,3.81,0.36,4.73-1.27l8.88-13.53C73.16,198.31,72.57,196.17,70.89,195.22z M70.64,199.03l-8.88,13.53
			c-0.45,0.79-1.46,1.07-2.25,0.63l-22.03-12.45c-0.79-0.45-1.07-1.46-0.6-2.31l6.95-14.48c0.45-0.79,1.46-1.07,2.25-0.63
			l23.9,13.51C70.77,197.28,71.05,198.28,70.64,199.03z"/>
	</g>
	<g>
		<path class="st2" d="M115.55,220.47l-23.9-13.51c-1.68-0.95-3.81-0.36-4.79,1.38l-6.96,14.48c-0.95,1.68-0.36,3.81,1.32,4.76
			l22.03,12.46c1.68,0.95,3.81,0.36,4.73-1.27l8.88-13.53C117.82,223.55,117.22,221.42,115.55,220.47z M115.3,224.27l-8.88,13.53
			c-0.45,0.79-1.46,1.07-2.25,0.62l-22.03-12.46c-0.79-0.45-1.07-1.46-0.6-2.31l6.96-14.48c0.45-0.79,1.46-1.07,2.25-0.62
			l23.9,13.51C115.43,222.52,115.71,223.53,115.3,224.27z"/>
	</g>
</g>
<g class="st1">
	<g>
		<g>
			<path class="st2" d="M287.64,221.58c-1.58,0.38-3,1.6-4.22,3.62c-4.14,6.9-9.22,17.79-12.69,25.56l2.26-0.54
				c3.42-7.6,8.13-17.62,12-24.08c0.94-1.56,2-2.52,3.06-2.78c1.4-0.33,2.55,0.57,3.11,1.14c1.11,1.12,1.92,3.06,1.67,3.99
				c-0.03,0.1-0.06,0.16-0.06,0.18c-0.14-0.01-0.95-0.18-2.72-2.22c-0.79-0.92-1.62-0.88-2.04-0.78c-1.63,0.39-2.8,2.91-4.27,6.44
				c-0.7,1.67-3.18,8.95-5.87,16.95l2.12-0.5c2.53-7.53,4.81-14.2,5.45-15.74c0.59-1.41,2.16-5.15,2.99-5.36c0,0,0.08,0.03,0.23,0.2
				c1.88,2.18,3.37,3.09,4.56,2.81c0.4-0.09,1.1-0.41,1.39-1.5c0.47-1.77-0.72-4.32-2.15-5.76
				C291.07,221.78,289.31,221.18,287.64,221.58z"/>
		</g>
	</g>
	<g>
		<g>
			<path class="st2" d="M326.14,212.41c-1.66,0.4-2.97,1.72-3.59,3.64c-0.62,1.93-0.54,4.74,0.68,6.11
				c0.75,0.84,1.52,0.81,1.92,0.71c1.19-0.28,2.11-1.78,2.8-4.57c0.05-0.2,0.11-0.27,0.11-0.27c0.84-0.2,3.93,2.44,5.09,3.43
				c1.27,1.08,6.31,6.01,11.96,11.59l2.12-0.5c-6-5.93-11.51-11.31-12.88-12.49c-2.91-2.48-5.09-4.21-6.71-3.82
				c-0.42,0.1-1.17,0.44-1.47,1.62c-0.7,2.81-1.4,3.2-1.39,3.22c-0.01-0.01-0.07-0.04-0.17-0.15c-0.64-0.72-0.79-2.81-0.3-4.31
				c0.25-0.76,0.87-2.08,2.27-2.42c1.07-0.25,2.45,0.13,3.99,1.1c6.36,4.02,15.09,10.83,21.57,16.08l2.26-0.54
				c-6.6-5.37-16.04-12.81-22.85-17.1C329.54,212.48,327.72,212.03,326.14,212.41z"/>
		</g>
	</g>
	<g>
		<path class="st2" d="M359.59,231.83c-0.43-1.79-2.3-2.88-4.17-2.44l-85.48,20.36c-1.88,0.45-3.05,2.27-2.63,4.06l5.66,23.78
			c0.43,1.79,2.3,2.88,4.17,2.44l35.57-8.47c1.85-0.44,3.02-2.22,2.64-3.98c-0.08-0.91-0.85-9.86-1.33-13.43
			c-0.02-0.13,0.51-0.7,1.98-1.07c1.25-0.3,2.12-0.16,2.23-0.13c1.79,5,4.63,12.76,4.64,12.76c0.43,1.79,2.3,2.88,4.17,2.43
			l35.57-8.47c1.88-0.45,3.05-2.27,2.63-4.05L359.59,231.83z M362.2,257.88l-35.57,8.47c-0.89,0.21-1.76-0.27-1.98-1.17
			c0,0-2.86-7.83-4.67-12.85c-0.51-1.42-2.68-1.45-4.39-1.04l-0.12,0.03c-2.19,0.56-3.43,1.73-3.25,3.08
			c0.49,3.64,1.32,13.3,1.33,13.4l0.02,0.14c0.19,0.8-0.37,1.62-1.26,1.83l-35.57,8.47c-0.89,0.21-1.76-0.27-1.95-1.07l-5.66-23.78
			c-0.19-0.8,0.37-1.62,1.26-1.84l85.48-20.36c0.89-0.21,1.76,0.27,1.95,1.07l5.66,23.78C363.66,256.84,363.09,257.66,362.2,257.88z
			"/>
	</g>
	<g>
		<path class="st2" d="M306.23,248.85c-0.45-1.88-2.33-3.04-4.21-2.59l-26.71,6.36c-1.88,0.45-3.04,2.33-2.57,4.27l4.75,15.34
			c0.45,1.88,2.34,3.04,4.21,2.59l24.62-5.86c1.88-0.45,3.04-2.33,2.6-4.15L306.23,248.85z M305.89,267.17l-24.62,5.86
			c-0.89,0.21-1.78-0.34-2.01-1.28l-4.75-15.34c-0.21-0.89,0.34-1.78,1.22-1.99l26.71-6.36c0.89-0.21,1.78,0.34,1.98,1.16
			l2.69,15.96C307.33,266.06,306.78,266.96,305.89,267.17z"/>
	</g>
	<g>
		<path class="st2" d="M356.13,236.97c-0.45-1.88-2.33-3.04-4.21-2.59l-26.7,6.36c-1.88,0.45-3.04,2.34-2.57,4.27l4.75,15.34
			c0.45,1.88,2.33,3.04,4.21,2.59l24.62-5.86c1.88-0.45,3.04-2.33,2.6-4.15L356.13,236.97z M355.8,255.28l-24.62,5.86
			c-0.89,0.21-1.78-0.34-2.01-1.28l-4.75-15.34c-0.21-0.89,0.34-1.78,1.22-1.99l26.7-6.36c0.89-0.21,1.78,0.34,1.98,1.16l2.7,15.96
			C357.23,254.18,356.69,255.07,355.8,255.28z"/>
	</g>
</g>
<g class="st1">
	<g>
		<g>
			<g>
				<path class="st2" d="M138.11,89.09l-4.5-10.33c-0.8,0.35-1.73-0.02-2.08-0.82L94.14,94.23l-37.41,16.24
					c0.35,0.8-0.02,1.73-0.82,2.08l4.49,10.34l0,0l7.98,18.38c0.8-0.35,1.73,0.02,2.08,0.82l34.98-15.18c0,0,0,0,0,0l2.45-1.07
					l2.45-1.06c0,0,0,0,0,0l34.96-15.23c-0.35-0.8,0.02-1.73,0.82-2.08L138.11,89.09L138.11,89.09z M142.87,108.44l-35.77,15.58
					l-35.8,15.53c-0.35-0.8-1.28-1.17-2.08-0.82l-6.6-15.2l0,0l-4.29-9.88c0.8-0.35,1.17-1.28,0.82-2.08l32.61-14.15l0,0l3.17-1.38
					l3.17-1.37l0,0l32.59-14.2c0.35,0.8,1.28,1.17,2.08,0.82l4.3,9.88l0,0l6.61,15.2C142.89,106.71,142.52,107.64,142.87,108.44z"/>
			</g>
		</g>
		<g>
			<g>
				<path class="st2" d="M48.67,108.73l17.52,40.3l87.39-38l-17.52-40.3L48.67,108.73z M67.13,146.65l-16.08-36.98l84.08-36.56
					l16.08,36.98L67.13,146.65z"/>
			</g>
		</g>
		<g>
			
				<rect x="65.16" y="118.62" transform="matrix(0.9171 -0.3987 0.3987 0.9171 -40.2793 45.3888)" class="st2" width="47.63" height="1.81"/>
		</g>
		<g>
			
				<rect x="67.04" y="122.95" transform="matrix(0.9171 -0.3987 0.3987 0.9171 -41.8497 46.4986)" class="st2" width="47.63" height="1.81"/>
		</g>
		<g>
			
				<rect x="114.05" y="92.74" transform="matrix(0.9171 -0.3987 0.3987 0.9171 -27.1122 56.9269)" class="st2" width="18.49" height="1.81"/>
		</g>
		<g>
			
				<rect x="118.06" y="101.96" transform="matrix(0.9171 -0.3987 0.3987 0.9171 -30.4558 59.2898)" class="st2" width="18.49" height="1.81"/>
		</g>
		<g>
			
				<rect x="119.94" y="106.29" transform="matrix(0.9171 -0.3987 0.3987 0.9171 -32.0249 60.395)" class="st2" width="18.49" height="1.81"/>
		</g>
		<g>
			<polygon class="st2" points="74.88,112.07 74.41,110.99 70.01,112.9 70.48,113.98 72.04,113.3 74.04,117.89 75.32,117.33 
				73.32,112.74 			"/>
			
				<rect x="76.46" y="110.07" transform="matrix(0.9171 -0.3987 0.3987 0.9171 -38.7204 40.1492)" class="st2" width="1.4" height="6.18"/>
			<path class="st2" d="M82.34,113.09c-0.83,0.36-1.67-0.08-2.17-1.25c-0.49-1.14-0.18-2.09,0.61-2.44c0.4-0.17,0.74-0.13,1.14,0.01
				l0.36-1.1c-0.55-0.22-1.29-0.32-2-0.01c-1.46,0.63-2.23,2.27-1.41,4.15c0.83,1.9,2.46,2.38,3.93,1.74
				c0.7-0.31,1.2-0.86,1.44-1.62l-1.04-0.47C83.05,112.54,82.81,112.89,82.34,113.09z"/>
			<polygon class="st2" points="87.34,105.37 85.94,105.98 85.25,109.03 85.23,109.04 84.22,106.72 82.93,107.28 85.4,112.95 
				86.68,112.39 86.02,110.87 86.3,109.71 88.71,111.5 90.12,110.89 86.61,108.37 			"/>
			<polygon class="st2" points="91.54,108.99 90.97,107.69 92.9,106.85 92.44,105.78 90.51,106.62 90.01,105.48 92.28,104.5 
				91.81,103.42 88.26,104.97 90.72,110.63 94.36,109.05 93.9,107.97 			"/>
			<polygon class="st2" points="97.42,102.27 96.95,101.19 92.55,103.1 93.02,104.18 94.59,103.5 96.58,108.08 97.86,107.53 
				95.86,102.94 			"/>
		</g>
		<g>
			<path class="st2" d="M107.41,92.69c-0.5,0.22-0.72,0.79-0.51,1.29s0.79,0.72,1.29,0.51c0.5-0.22,0.72-0.79,0.51-1.29
				C108.49,92.7,107.91,92.48,107.41,92.69z"/>
		</g>
		<g>
			<path class="st2" d="M109.38,97.22c-0.5,0.22-0.72,0.79-0.51,1.29c0.22,0.5,0.79,0.72,1.29,0.51c0.5-0.22,0.72-0.79,0.51-1.29
				C110.45,97.23,109.88,97,109.38,97.22z"/>
		</g>
		<g>
			<path class="st2" d="M111.32,101.68c-0.5,0.22-0.72,0.79-0.51,1.29c0.22,0.5,0.79,0.72,1.29,0.51c0.5-0.22,0.72-0.79,0.51-1.29
				C112.39,101.69,111.82,101.46,111.32,101.68z"/>
		</g>
		<g>
			<path class="st2" d="M113.3,106.24c-0.5,0.22-0.72,0.79-0.51,1.29c0.22,0.5,0.79,0.72,1.29,0.51c0.5-0.22,0.72-0.79,0.51-1.29
				C114.38,106.25,113.8,106.02,113.3,106.24z"/>
		</g>
		<g>
			<path class="st2" d="M115.3,110.83c-0.5,0.22-0.72,0.79-0.51,1.29c0.22,0.5,0.79,0.72,1.29,0.51c0.5-0.22,0.72-0.79,0.51-1.29
				C116.37,110.85,115.8,110.62,115.3,110.83z"/>
		</g>
		<g>
			<path class="st2" d="M117.27,115.36c-0.5,0.22-0.72,0.79-0.51,1.29c0.22,0.5,0.79,0.72,1.29,0.51c0.5-0.22,0.72-0.79,0.51-1.29
				C118.34,115.37,117.76,115.14,117.27,115.36z"/>
		</g>
	</g>
	<g>
		<g>
			<g>
				<path class="st2" d="M115.72,46.34L115.72,46.34l-7.43-8.47c-0.66,0.58-1.66,0.51-2.23-0.15L75.4,64.63L44.71,91.48
					c0.58,0.66,0.51,1.66-0.15,2.23l7.42,8.48l0,0l4,4.56l1.71-0.75l-3.39-3.88l0,0l-7.09-8.11c0.66-0.58,0.72-1.58,0.15-2.23
					l26.75-23.41l0,0l2.6-2.28l2.6-2.27l0,0l26.72-23.45c0.58,0.66,1.58,0.72,2.23,0.15l7.11,8.1l0,0l10.93,12.46
					c-0.66,0.58-0.72,1.58-0.15,2.23L96.94,88.95l5.94-2.58l25.9-22.73c-0.58-0.66-0.51-1.66,0.15-2.23L115.72,46.34z"/>
			</g>
		</g>
		<g>
			<g>
				<polygon class="st2" points="36.51,92.29 51.07,108.9 52.81,108.14 39.06,92.45 108.01,32.03 134.59,62.35 111.42,82.66 
					116.87,80.29 137.14,62.52 108.18,29.48 				"/>
			</g>
		</g>
		<g>
			<polygon class="st2" points="60.03,105 65.47,102.63 96.69,75.28 95.5,73.92 			"/>
		</g>
		<g>
			<polygon class="st2" points="74.25,98.82 79.69,96.45 99.8,78.83 98.61,77.47 			"/>
		</g>
		<g>
			
				<rect x="93.75" y="54.28" transform="matrix(0.752 -0.6592 0.6592 0.752 -10.834 81.5782)" class="st2" width="18.49" height="1.81"/>
		</g>
		<g>
			
				<rect x="100.37" y="61.84" transform="matrix(0.7519 -0.6592 0.6592 0.7519 -14.1732 87.826)" class="st2" width="18.49" height="1.81"/>
		</g>
		<g>
			
				<rect x="103.48" y="65.39" transform="matrix(0.752 -0.6592 0.6592 0.752 -15.7443 90.7487)" class="st2" width="18.49" height="1.81"/>
		</g>
		<g>
			<polygon class="st2" points="62.49,87.48 61.71,86.6 58.11,89.76 58.88,90.64 60.16,89.52 63.46,93.28 64.51,92.36 61.21,88.6 
							"/>
			
				<rect x="64.29" y="84.74" transform="matrix(0.752 -0.6591 0.6591 0.752 -41.7739 64.6176)" class="st2" width="1.4" height="6.18"/>
			<path class="st2" d="M69.9,86.19c-0.68,0.59-1.61,0.43-2.45-0.52c-0.82-0.93-0.8-1.94-0.16-2.51c0.33-0.29,0.67-0.35,1.09-0.34
				l0.01-1.15c-0.6-0.05-1.33,0.09-1.91,0.6c-1.2,1.05-1.43,2.84-0.08,4.38c1.37,1.56,3.07,1.52,4.27,0.46
				c0.58-0.51,0.88-1.19,0.88-1.98L70.43,85C70.42,85.45,70.29,85.85,69.9,86.19z"/>
			<polygon class="st2" points="72.32,77.31 71.17,78.31 71.45,81.43 71.42,81.45 69.76,79.55 68.7,80.47 72.78,85.12 73.83,84.19 
				72.74,82.95 72.65,81.76 75.5,82.73 76.65,81.72 72.54,80.39 			"/>
			<polygon class="st2" points="77.42,79.48 76.49,78.41 78.07,77.03 77.3,76.15 75.72,77.54 74.9,76.6 76.76,74.97 75.99,74.09 
				73.07,76.64 77.14,81.29 80.13,78.68 79.35,77.79 			"/>
			<polygon class="st2" points="80.97,71.28 80.2,70.4 76.59,73.56 77.37,74.44 78.65,73.32 81.95,77.08 82.99,76.16 79.7,72.4 			
				"/>
		</g>
		<g>
			<path class="st2" d="M87.58,59.12c-0.41,0.36-0.45,0.98-0.09,1.38c0.36,0.41,0.98,0.45,1.38,0.09c0.41-0.36,0.45-0.98,0.09-1.38
				C88.6,58.81,87.98,58.76,87.58,59.12z"/>
		</g>
		<g>
			<path class="st2" d="M90.83,62.83c-0.41,0.36-0.45,0.98-0.09,1.38c0.36,0.41,0.98,0.45,1.38,0.09c0.41-0.36,0.45-0.98,0.09-1.38
				C91.86,62.52,91.24,62.48,90.83,62.83z"/>
		</g>
		<g>
			<path class="st2" d="M94.03,66.49c-0.41,0.36-0.45,0.98-0.09,1.38c0.36,0.41,0.98,0.45,1.38,0.09c0.41-0.36,0.45-0.98,0.09-1.38
				C95.06,66.17,94.44,66.13,94.03,66.49z"/>
		</g>
		<g>
			<path class="st2" d="M97.31,70.23c-0.41,0.36-0.45,0.98-0.09,1.38c0.36,0.41,0.98,0.45,1.38,0.09c0.41-0.36,0.45-0.98,0.09-1.38
				C98.34,69.91,97.72,69.87,97.31,70.23z"/>
		</g>
		<g>
			<path class="st2" d="M100.61,74c-0.41,0.36-0.45,0.98-0.09,1.38c0.36,0.41,0.98,0.45,1.38,0.09c0.41-0.36,0.45-0.98,0.09-1.38
				C101.64,73.68,101.02,73.64,100.61,74z"/>
		</g>
		<g>
			<path class="st2" d="M103.87,77.71c-0.41,0.36-0.45,0.98-0.09,1.38c0.36,0.41,0.98,0.45,1.38,0.09c0.41-0.36,0.45-0.98,0.09-1.38
				C104.89,77.39,104.27,77.35,103.87,77.71z"/>
		</g>
	</g>
</g>
<g class="st1">
	<g>
		<g>
			<g>
				<path class="st2" d="M380.26,337.15c-0.45,0.75-1.42,0.99-2.17,0.54l-5.82,9.65l0,0l-10.34,17.17c0.75,0.45,0.99,1.42,0.54,2.17
					l32.66,19.68c0,0,0,0,0,0l2.29,1.38l2.29,1.38c0,0,0,0,0,0l32.69,19.63c0.45-0.75,1.42-0.99,2.17-0.54l10.32-17.17l0,0l5.11-8.5
					v-2.06c-0.09-0.29-0.09-0.61,0-0.91v-0.45l-34.81-20.91L380.26,337.15z M417.13,361.68l30.48,18.31
					c-0.45,0.75-0.21,1.72,0.54,2.17l-5.55,9.23l0,0l-8.54,14.21c-0.75-0.45-1.72-0.21-2.17,0.54l-33.45-20.09l-33.42-20.14
					c0.45-0.75,0.21-1.72-0.54-2.17l8.55-14.2l0,0l5.56-9.23c0.75,0.45,1.72,0.21,2.17-0.54l30.45,18.35l0,0l2.96,1.78
					L417.13,361.68L417.13,361.68z"/>
			</g>
		</g>
		<g>
			<g>
				<polygon class="st2" points="354.35,367.24 436.01,416.37 450,393.11 450,389.6 435.39,413.89 356.83,366.62 377.62,332.07 
					450,375.62 450,373.51 377,329.59 				"/>
			</g>
		</g>
		<g>
			
				<rect x="390.69" y="344.86" transform="matrix(0.5155 -0.8569 0.8569 0.5155 -126.1897 514.1568)" class="st2" width="1.81" height="47.63"/>
		</g>
		<g>
			
				<rect x="388.25" y="348.91" transform="matrix(0.5155 -0.8569 0.8569 0.5155 -130.8358 514.0315)" class="st2" width="1.81" height="47.63"/>
		</g>
		<g>
			
				<rect x="431.68" y="372.36" transform="matrix(0.5155 -0.8569 0.8569 0.5155 -117.4097 555.5507)" class="st2" width="1.81" height="18.49"/>
		</g>
		<g>
			
				<rect x="426.5" y="380.97" transform="matrix(0.5155 -0.8569 0.8569 0.5155 -127.3021 555.282)" class="st2" width="1.81" height="18.49"/>
		</g>
		<g>
			
				<rect x="424.07" y="385.02" transform="matrix(0.5155 -0.8569 0.8569 0.5155 -131.9483 555.1562)" class="st2" width="1.81" height="18.49"/>
		</g>
		<g>
			<polygon class="st2" points="385.38,350.39 386.84,351.27 384.26,355.56 385.45,356.28 388.03,351.99 389.49,352.86 
				390.09,351.86 385.98,349.39 			"/>
			
				<rect x="386.83" y="354.66" transform="matrix(0.5155 -0.8569 0.8569 0.5155 -115.5946 506.265)" class="st2" width="6.18" height="1.4"/>
			<path class="st2" d="M395.68,355.09c-1.36-0.82-3.14-0.5-4.2,1.26c-1.07,1.78-0.51,3.39,0.86,4.21c0.66,0.4,1.4,0.48,2.15,0.23
				l-0.22-1.12c-0.43,0.13-0.85,0.13-1.29-0.14c-0.77-0.46-0.9-1.4-0.25-2.49c0.64-1.06,1.6-1.36,2.34-0.91
				c0.37,0.22,0.53,0.53,0.65,0.93l1.1-0.34C396.69,356.14,396.34,355.48,395.68,355.09z"/>
			<polygon class="st2" points="397.98,359.56 397.96,359.54 399.26,357.37 398.06,356.65 394.87,361.94 396.08,362.67 
				396.93,361.25 398.04,360.8 397.97,363.81 399.29,364.6 399.3,360.27 402.17,359.13 400.87,358.34 			"/>
			<polygon class="st2" points="399.85,364.94 403.25,366.98 403.86,365.98 401.66,364.65 402.39,363.44 404.19,364.52 
				404.79,363.52 402.99,362.44 403.63,361.37 405.75,362.65 406.36,361.64 403.04,359.64 			"/>
			<polygon class="st2" points="406.44,363.06 407.9,363.94 405.32,368.23 406.52,368.95 409.1,364.66 410.55,365.54 411.15,364.53 
				407.05,362.06 			"/>
		</g>
		<g>
			<path class="st2" d="M424.15,368.12c-0.46-0.28-1.07-0.13-1.34,0.33c-0.28,0.46-0.13,1.07,0.33,1.34
				c0.46,0.28,1.07,0.13,1.34-0.33C424.76,369,424.61,368.4,424.15,368.12z"/>
		</g>
		<g>
			<path class="st2" d="M421.6,372.35c-0.46-0.28-1.07-0.13-1.34,0.33c-0.28,0.46-0.13,1.07,0.33,1.34
				c0.46,0.28,1.07,0.13,1.34-0.33C422.21,373.23,422.06,372.63,421.6,372.35z"/>
		</g>
		<g>
			<path class="st2" d="M419.1,376.52c-0.46-0.28-1.07-0.13-1.34,0.33c-0.28,0.46-0.13,1.07,0.33,1.34
				c0.46,0.28,1.07,0.13,1.34-0.33C419.71,377.4,419.56,376.8,419.1,376.52z"/>
		</g>
		<g>
			<path class="st2" d="M416.53,380.78c-0.46-0.28-1.07-0.13-1.34,0.33c-0.28,0.46-0.13,1.07,0.33,1.34
				c0.46,0.28,1.07,0.13,1.34-0.33C417.14,381.66,416.99,381.06,416.53,380.78z"/>
		</g>
		<g>
			<path class="st2" d="M413.95,385.07c-0.46-0.28-1.07-0.13-1.34,0.33c-0.28,0.46-0.13,1.07,0.33,1.34
				c0.46,0.28,1.07,0.13,1.34-0.33C414.56,385.95,414.41,385.35,413.95,385.07z"/>
		</g>
		<g>
			<path class="st2" d="M411.4,389.3c-0.46-0.28-1.07-0.13-1.34,0.33s-0.13,1.07,0.33,1.34c0.46,0.28,1.07,0.13,1.34-0.33
				C412.02,390.18,411.87,389.58,411.4,389.3z"/>
		</g>
	</g>
	<g>
		<g>
			<g>
				<polygon class="st2" points="426.67,360.76 450,366.26 450,364.23 421.11,357.42 				"/>
				<path class="st2" d="M388.75,316.36c-0.2,0.85-1.05,1.38-1.9,1.17l-2.6,10.96l0,0l-1.4,5.9l1.6,0.96l1.19-5.01l0,0l2.49-10.48
					c0.85,0.2,1.7-0.32,1.9-1.17l34.59,8.2l0,0l3.36,0.79l3.36,0.8l0,0l18.66,4.4v-2.03l-21.57-5.08L388.75,316.36z"/>
			</g>
		</g>
		<g>
			<g>
				<polygon class="st2" points="439.73,368.63 450,371.05 450,369.19 434.65,365.56 				"/>
				<polygon class="st2" points="378.25,331.64 379.88,332.61 384.68,312.32 450,327.76 450,325.9 383.33,310.14 				"/>
			</g>
		</g>
		<g>
			<polygon class="st2" points="391.71,339.73 432.11,349.28 432.52,347.52 386.63,336.67 			"/>
		</g>
		<g>
			<polygon class="st2" points="405,347.73 431.02,353.88 431.44,352.12 399.91,344.67 			"/>
		</g>
		<g>
			<polygon class="st2" points="442.92,341.51 450,343.18 450,341.33 443.34,339.75 			"/>
		</g>
		<g>
			<polygon class="st2" points="440.61,351.29 450,353.51 450,351.65 441.02,349.53 			"/>
		</g>
		<g>
			<polygon class="st2" points="439.52,355.89 450,358.37 450,356.51 439.94,354.13 			"/>
		</g>
		<g>
			<polygon class="st2" points="397.65,327.41 399.31,327.8 398.16,332.67 399.52,332.99 400.67,328.12 402.32,328.51 
				402.59,327.37 397.92,326.26 			"/>
			
				<rect x="400.4" y="330.05" transform="matrix(0.2298 -0.9732 0.9732 0.2298 -11.1187 647.4588)" class="st2" width="6.18" height="1.4"/>
			<path class="st2" d="M408.89,328.74c-1.55-0.37-3.14,0.48-3.61,2.48c-0.48,2.02,0.55,3.38,2.1,3.75
				c0.75,0.18,1.48,0.03,2.12-0.43l-0.55-1c-0.37,0.25-0.77,0.38-1.27,0.26c-0.88-0.21-1.29-1.06-0.99-2.3
				c0.28-1.21,1.11-1.78,1.95-1.58c0.42,0.1,0.67,0.34,0.91,0.69l0.95-0.66C410.18,329.43,409.64,328.92,408.89,328.74z"/>
			<polygon class="st2" points="414.83,330.26 412.45,332.3 412.42,332.29 413,329.83 411.64,329.51 410.21,335.52 411.58,335.84 
				411.96,334.23 412.88,333.47 413.74,336.35 415.23,336.7 413.93,332.58 416.31,330.61 			"/>
			<polygon class="st2" points="415.87,336.85 419.73,337.77 420,336.62 417.5,336.03 417.83,334.65 419.88,335.13 420.14,334 
				418.1,333.52 418.38,332.31 420.79,332.88 421.06,331.73 417.29,330.84 			"/>
			<polygon class="st2" points="421.57,333.06 423.23,333.45 422.08,338.32 423.44,338.64 424.59,333.77 426.24,334.16 
				426.51,333.02 421.84,331.92 			"/>
		</g>
		<g>
			<path class="st2" d="M439.98,332.49c-0.53-0.12-1.05,0.2-1.18,0.73c-0.12,0.53,0.2,1.05,0.73,1.18c0.53,0.12,1.05-0.2,1.18-0.73
				C440.83,333.14,440.5,332.61,439.98,332.49z"/>
		</g>
		<g>
			<path class="st2" d="M438.84,337.29c-0.53-0.12-1.05,0.2-1.18,0.73c-0.12,0.53,0.2,1.05,0.73,1.18c0.53,0.12,1.05-0.2,1.18-0.73
				C439.69,337.94,439.37,337.41,438.84,337.29z"/>
		</g>
		<g>
			<path class="st2" d="M437.72,342.02c-0.53-0.12-1.05,0.2-1.18,0.73c-0.12,0.53,0.2,1.05,0.73,1.18c0.53,0.12,1.05-0.2,1.18-0.73
				C438.58,342.67,438.25,342.14,437.72,342.02z"/>
		</g>
		<g>
			<path class="st2" d="M436.58,346.86c-0.53-0.12-1.05,0.2-1.18,0.73c-0.12,0.53,0.2,1.05,0.73,1.18c0.53,0.12,1.05-0.2,1.18-0.73
				C437.43,347.51,437.11,346.98,436.58,346.86z"/>
		</g>
		<g>
			<path class="st2" d="M435.43,351.74c-0.53-0.12-1.05,0.2-1.18,0.73c-0.12,0.53,0.2,1.05,0.73,1.18c0.53,0.12,1.05-0.2,1.18-0.73
				C436.28,352.39,435.95,351.86,435.43,351.74z"/>
		</g>
		<g>
			<path class="st2" d="M434.29,356.54c-0.53-0.12-1.05,0.2-1.18,0.73c-0.12,0.53,0.2,1.05,0.73,1.18c0.53,0.12,1.05-0.2,1.18-0.73
				C435.14,357.19,434.82,356.66,434.29,356.54z"/>
		</g>
	</g>
</g>
<g class="st1">
	<g>
		<g>
			<g>
				<path class="st2" d="M0,380.47v2.06l0.7-1.16C0.34,381.16,0.11,380.84,0,380.47z"/>
				<path class="st2" d="M0,379.11v0.45c0.04-0.12,0.08-0.25,0.15-0.36L0,379.11z"/>
			</g>
		</g>
		<g>
			<g>
				<polygon class="st2" points="0,373.51 0,375.62 6.18,379.33 0,389.6 0,393.11 8.66,378.72 				"/>
			</g>
		</g>
	</g>
	<g>
		<g>
			<g>
				<path class="st2" d="M12.12,367.49l4.6-19.5l0,0l2.58-10.97c-0.85-0.2-1.38-1.05-1.18-1.9L0,330.85v2.03l15.94,3.76
					c-0.2,0.85,0.33,1.7,1.18,1.9l-2.47,10.49l0,0l-3.81,16.13c-0.85-0.2-1.7,0.33-1.9,1.18L0,364.23v2.03l10.21,2.41
					C10.42,367.82,11.27,367.29,12.12,367.49z"/>
			</g>
		</g>
		<g>
			<g>
				<polygon class="st2" points="26.08,332.07 0,325.9 0,327.76 23.9,333.41 14.62,372.65 0,369.19 0,371.05 15.97,374.83 				"/>
			</g>
		</g>
		<g>
			<polygon class="st2" points="11.33,344 0,341.33 0,343.18 10.92,345.76 			"/>
		</g>
		<g>
			<polygon class="st2" points="9.02,353.79 0,351.65 0,353.51 8.6,355.55 			"/>
		</g>
		<g>
			<polygon class="st2" points="7.93,358.38 0,356.51 0,358.37 7.52,360.14 			"/>
		</g>
	</g>
</g>
<g class="st1">
	<g>
		<g>
			<g>
				<polygon class="st2" points="58.18,34.8 58.78,0 56.92,0 56.35,33.24 34.24,37.18 19.83,0 17.86,0 33.06,39.27 				"/>
			</g>
		</g>
	</g>
	<g>
		<g>
			<path class="st2" d="M20.1,3.68c0.19,0.58,0.36,1.17,0.52,1.76L28.76,0h-3.33l-5.36,3.58C20.08,3.61,20.09,3.65,20.1,3.68z"/>
		</g>
	</g>
	<g>
		<g>
			<path class="st2" d="M25.05,16.14c0.03,0.12,0.07,0.25,0.11,0.37L49.91,0h-3.34L24.54,14.7C24.73,15.17,24.91,15.65,25.05,16.14z
				"/>
		</g>
	</g>
	<g>
		<g>
			<path class="st2" d="M58.08,6.73L28.81,26.26c0.24,0.59,0.46,1.18,0.66,1.79L58.08,8.96c-0.01-0.42-0.03-0.85-0.02-1.27
				C58.06,7.37,58.08,7.05,58.08,6.73z"/>
		</g>
	</g>
	<g>
		<g>
			<path class="st2" d="M33.78,38.77l23.81-15.89c-0.02-0.78,0.02-1.55,0.14-2.32l-24.8,16.54C33.23,37.67,33.51,38.22,33.78,38.77z
				"/>
		</g>
	</g>
</g>
<g class="st1">
	<g>
		<g>
			<g>
				<polygon class="st2" points="320.23,308.66 321.71,309.77 343.89,280.45 346.42,282.37 324.24,311.69 325.72,312.81 
					349.02,282.01 343.53,277.85 				"/>
			</g>
			<g>
				<polygon class="st2" points="336.78,328.03 297.19,363.45 279.27,349.89 302.58,302.16 303.27,301.25 301.79,300.13 
					301.04,301.11 276.94,350.45 297.29,365.84 338.08,329.35 338.94,328.22 337.47,327.11 				"/>
			</g>
		</g>
		<g>
			<path class="st2" d="M299.77,300.36l39.51,29.88l4.1-5.42l-39.51-29.88L299.77,300.36z M340.78,325.18l-1.86,2.46L302.36,300
				l1.86-2.46L340.78,325.18z"/>
		</g>
	</g>
	<g>
		<g>
			<path class="st2" d="M294.3,316.67c-0.02,0.03-0.04,0.06-0.05,0.09c-0.29,0.54-0.61,1.06-0.94,1.57l43.76,10.47
				c0.14-0.18,0.27-0.36,0.39-0.55c0.36-0.57,0.29-0.87,0.07-1.24L294.3,316.67z"/>
		</g>
	</g>
	<g>
		<g>
			<path class="st2" d="M288.46,328.86c-0.07,0.11-0.13,0.22-0.2,0.33l38.34,9.2c0.18-0.13,0.36-0.25,0.55-0.35
				c0.4-0.38,0.81-0.76,1.23-1.13l-39.21-9.4C288.97,327.97,288.73,328.42,288.46,328.86z"/>
		</g>
	</g>
	<g>
		<g>
			<path class="st2" d="M282.73,340.19l33.45,8.02c0.3-0.29,0.6-0.59,0.92-0.88c0.23-0.22,0.48-0.42,0.72-0.63l-34.22-8.21
				C283.33,339.07,283.04,339.64,282.73,340.19z"/>
		</g>
	</g>
	<g>
		<g>
			<path class="st2" d="M277.8,350.64l27.83,6.67c0.56-0.54,1.15-1.04,1.79-1.47l-28.99-6.95
				C278.23,349.49,278.02,350.07,277.8,350.64z"/>
		</g>
	</g>
</g>
<g class="st1">
	<g>
		<g>
			<g>
				<path class="st2" d="M93.33,361.63l-7.86-1.77l3.76-16.75l-1.81-0.41l-4.17,18.56l9.67,2.17c1.06,0.24,1.92,0.96,2.37,1.92
					l-33.98-7.64c0.81-0.67,1.91-0.95,2.96-0.72l9.77,2.19l4.17-18.56l-1.81-0.41l-3.76,16.75l-7.96-1.79
					c-2.3-0.52-4.7,0.58-5.84,2.65l-0.59,1.08l39.29,8.83l-0.07-1.23C97.33,364.16,95.63,362.14,93.33,361.63z"/>
			</g>
		</g>
		<g>
			<g>
				<g>
					<path class="st2" d="M105.64,272.55l-13.25-3c-7.31-1.64-14.59,2.95-16.23,10.24l-9.22,41.02c0.58,0.1,1.16,0.24,1.75,0.35
						c0.02,0,0.04,0.01,0.07,0.01l9.21-40.98c1.41-6.29,7.7-10.26,14.01-8.84l12.56,2.82c6.31,1.42,10.3,7.69,8.88,13.98
						l-9.25,41.18c0.6,0.13,1.21,0.25,1.81,0.38l9.25-41.15C116.81,281.52,112.54,274.48,105.64,272.55z"/>
				</g>
				<g>
					<path class="st2" d="M54.04,321.94l0.94,0.21c0.22-0.48,0.47-0.95,0.75-1.34c0.1-0.15,0.34-0.42,0.62-0.67l1.55-6.91
						c-0.66,0.39-1.45,0.78-2.09,0.87L54.04,321.94z"/>
				</g>
				<g>
					<path class="st2" d="M117.55,326.09l-1.55,6.88c0.34,0.48,0.38,1.18,0.23,1.86c-0.08,0.35-0.18,0.68-0.29,1.02l1.24,0.28
						l1.86-8.28c-0.12-0.08-0.23-0.15-0.32-0.23C118.42,327.34,117.87,326.73,117.55,326.09z"/>
				</g>
				<g>
					<path class="st2" d="M121.09,270.9l-42.67-9.59c-5.65-1.27-11.27,2.29-12.54,7.94l-6.55,29.16c0.62,0.33,1.16,0.87,1.57,1.46
						l6.79-30.21c1.04-4.65,5.68-7.58,10.33-6.54l42.67,9.59c4.65,1.04,7.58,5.68,6.54,10.33l-7.08,31.52
						c0.18-0.21,0.36-0.43,0.56-0.62c0.41-0.39,1.07-0.93,1.74-1.22l6.58-29.28C130.3,277.8,126.73,272.17,121.09,270.9z"/>
				</g>
			</g>
		</g>
		<g>
			<path class="st2" d="M97.57,275.5c-3.14-0.7-5.94,0.3-6.39,2.3c-0.45,1.99,1.66,4.11,4.79,4.81c3.14,0.7,5.94-0.31,6.39-2.3
				C102.81,278.32,100.7,276.21,97.57,275.5z M96.38,280.81c-2.35-0.53-3.56-1.87-3.39-2.6c0.16-0.73,1.83-1.43,4.18-0.9
				s3.56,1.87,3.39,2.6C100.39,280.64,98.72,281.33,96.38,280.81z"/>
		</g>
		<g>
			<g>
				<g>
					<polygon class="st2" points="53.18,313.55 51.37,313.15 48.47,326.05 53.79,327.25 54.2,325.44 50.69,324.65 					"/>
				</g>
				<g>
					<polygon class="st2" points="119.67,340.15 115.51,339.22 115.11,341.02 121.07,342.36 123.9,329.76 122.09,329.36 					"/>
				</g>
				<g>
					<polygon class="st2" points="48.95,312.6 47.14,312.2 43.15,329.95 52.7,332.1 53.1,330.29 45.36,328.55 					"/>
				</g>
				<g>
					<polygon class="st2" points="122.81,345.96 114.42,344.07 114.02,345.88 124.21,348.17 128.13,330.71 126.32,330.31 					"/>
				</g>
			</g>
			<g>
				<g>
					<path class="st2" d="M58.89,297.24L48.96,295c-2.15-0.48-4.28,0.87-4.76,3.02l-2.18,9.71c-0.48,2.15,0.87,4.28,3.02,4.77
						l9.93,2.23c2.15,0.48,4.28-0.87,4.77-3.02l2.18-9.71C62.39,299.86,61.04,297.72,58.89,297.24z M60.1,301.59l-2.18,9.71
						c-0.26,1.15-1.4,1.87-2.55,1.62l-9.93-2.23c-1.15-0.26-1.87-1.4-1.62-2.55l2.18-9.71c0.26-1.15,1.4-1.87,2.55-1.62l9.93,2.23
						C59.64,299.3,60.36,300.45,60.1,301.59z"/>
				</g>
				<g>
					<path class="st2" d="M133.88,314.22l-9.93-2.23c-2.15-0.48-4.28,0.87-4.76,3.02l-2.18,9.71c-0.48,2.15,0.87,4.28,3.02,4.76
						l9.93,2.23c2.15,0.48,4.28-0.87,4.77-3.02l2.18-9.71C137.38,316.84,136.03,314.7,133.88,314.22z M135.09,318.58l-2.18,9.71
						c-0.26,1.15-1.4,1.87-2.55,1.62l-9.93-2.23c-1.15-0.26-1.87-1.4-1.62-2.55l2.18-9.71c0.26-1.15,1.4-1.87,2.55-1.62l9.93,2.23
						C134.63,316.28,135.35,317.43,135.09,318.58z"/>
				</g>
			</g>
		</g>
		<g>
			<path class="st2" d="M114.27,330.79l-55.31-12.43c-2.17-0.49-4.33,0.88-4.81,3.05l-2.16,9.62c-0.6,2.68,0.67,5.25,2.84,5.74
				l55.31,12.43c2.17,0.49,4.42-1.3,5.02-3.97l2.16-9.62C117.81,333.43,116.44,331.28,114.27,330.79z M115.51,335.2l-2.16,9.62
				c-0.37,1.65-1.66,2.83-2.81,2.57l-55.31-12.43c-1.15-0.26-1.81-1.87-1.44-3.53l2.16-9.62c0.26-1.17,1.43-1.91,2.6-1.65
				l55.31,12.43C115.04,332.86,115.78,334.02,115.51,335.2z"/>
		</g>
	</g>
	<g>
		
			<rect x="93.19" y="275.95" transform="matrix(0.2193 -0.9757 0.9757 0.2193 -210.6242 319.1766)" class="st2" width="1.85" height="30.49"/>
	</g>
	<g>
		
			<rect x="88.24" y="297.98" transform="matrix(0.2193 -0.9757 0.9757 0.2193 -235.9874 331.5483)" class="st2" width="1.85" height="30.49"/>
	</g>
</g>
<g class="st1">
	<g>
		<g>
			<g>
				<g>
					<path class="st2" d="M258.49,55.04l-2.09,0c-0.94,0-1.71,0.77-1.71,1.71l0,2.99l1.95,0l0-2.75l1.6,0l0,2.75l1.95,0l0-2.99
						C260.2,55.8,259.43,55.04,258.49,55.04z"/>
				</g>
				<g>
					
						<rect x="258.28" y="79.45" transform="matrix(1 -1.016127e-03 1.016127e-03 1 -0.0899 0.2635)" class="st2" width="1.95" height="18.4"/>
				</g>
				<g>
					
						<rect x="254.72" y="79.45" transform="matrix(1 -1.021566e-03 1.021566e-03 1 -0.0904 0.2613)" class="st2" width="1.95" height="18.4"/>
				</g>
			</g>
			<g>
				<g>
					<path class="st2" d="M320.06,54.97l-2.09,0c-0.94,0-1.71,0.77-1.71,1.71l0,2.99l1.95,0l0-2.75l1.6,0l0,2.75l1.95,0l0-2.99
						C321.77,55.74,321.01,54.97,320.06,54.97z"/>
				</g>
				<g>
					
						<rect x="319.85" y="79.39" transform="matrix(1 -1.015694e-03 1.015694e-03 1 -0.0898 0.3259)" class="st2" width="1.95" height="18.4"/>
				</g>
				<g>
					
						<rect x="316.3" y="79.39" transform="matrix(1 -1.016127e-03 1.016127e-03 1 -0.0899 0.3224)" class="st2" width="1.95" height="18.4"/>
				</g>
			</g>
		</g>
		<g>
			<path class="st2" d="M322.02,96.75l-67.53,0.07c-0.91,0-1.66,0.72-1.71,1.62c-0.8,4.92-1.75,10.83-1.75,11.22
				c0,0.93,0.76,1.69,1.69,1.69l71.08-0.07c0.93,0,1.69-0.76,1.69-1.69c0-0.39-0.96-6.3-1.77-11.21
				C323.68,97.46,322.93,96.75,322.02,96.75z M253.03,109.39c0.2-1.43,1.09-7.01,1.68-10.62l67.1-0.07
				c0.6,3.63,1.51,9.28,1.71,10.61L253.03,109.39z"/>
		</g>
		<g>
			<path class="st2" d="M323.2,58.78l-69.86,0.07c-0.94,0-1.71,0.77-1.71,1.71l0.02,17.99c0,0.94,0.77,1.71,1.71,1.71l69.86-0.07
				c0.94,0,1.71-0.77,1.71-1.71l-0.02-17.99C324.92,59.55,324.15,58.78,323.2,58.78z M253.6,78.32l-0.02-17.51l69.38-0.07
				l0.02,17.51L253.6,78.32z"/>
		</g>
	</g>
	<g>
		<g>
			<polygon class="st2" points="265.99,110.22 306.75,148.77 308.09,147.35 268.84,110.22 			"/>
		</g>
	</g>
	<g>
		<g>
			<polygon class="st2" points="265.89,147.4 267.23,148.81 307.91,110.18 305.06,110.18 			"/>
		</g>
	</g>
	<g>
		
			<rect x="271.61" y="142.31" transform="matrix(1 -1.023384e-03 1.023384e-03 1 -0.1465 0.2938)" class="st2" width="30.74" height="1.95"/>
	</g>
	<g>
		<path class="st2" d="M267.17,65.58l-1.87,0l0.01,6.64l1.97,0c1.95,0,3.25-1.07,3.25-3.36C270.51,66.58,269.2,65.58,267.17,65.58z
			 M267.09,71.01l-0.29,0l0-4.22l0.29,0c1.12,0,1.89,0.49,1.89,2.08C268.97,70.46,268.21,71.01,267.09,71.01z"/>
		
			<rect x="271.75" y="65.57" transform="matrix(1 -1.023587e-03 1.023587e-03 1 -0.0704 0.279)" class="st2" width="1.51" height="6.64"/>
		<path class="st2" d="M279.77,67.63c0-1.58-1.16-2.07-2.57-2.07l-2.39,0l0.01,6.64l1.51,0l0-2.39l0.82,0l1.28,2.39l1.68,0
			l-1.5-2.66C279.29,69.23,279.77,68.61,279.77,67.63z M277.08,68.63l-0.76,0l0-1.86l0.76,0c0.78,0,1.21,0.22,1.21,0.88
			C278.3,68.29,277.87,68.62,277.08,68.63z"/>
		<polygon class="st2" points="282.59,70.94 282.59,69.41 284.85,69.41 284.85,68.16 282.59,68.16 282.58,66.83 285.24,66.82 
			285.24,65.56 281.08,65.56 281.08,72.21 285.35,72.2 285.35,70.94 		"/>
		<path class="st2" d="M289.48,71.03c-0.97,0-1.61-0.79-1.61-2.16c0-1.33,0.72-2.14,1.65-2.14c0.47,0,0.78,0.19,1.12,0.5l0.82-0.93
			c-0.45-0.46-1.14-0.86-1.97-0.86c-1.71,0-3.17,1.29-3.17,3.49c0,2.23,1.41,3.4,3.13,3.4c0.83,0,1.56-0.34,2.11-0.98l-0.83-0.91
			C290.41,70.79,290.03,71.03,289.48,71.03z"/>
		<polygon class="st2" points="297.05,65.55 291.9,65.55 291.9,66.82 293.73,66.81 293.74,72.2 295.24,72.19 295.23,66.81 
			297.05,66.81 		"/>
		<path class="st2" d="M300.5,65.42c-1.78,0-3.01,1.25-3.01,3.42c0,2.17,1.24,3.47,3.02,3.47c1.79,0,3.01-1.31,3.01-3.48
			C303.51,66.67,302.29,65.42,300.5,65.42z M300.5,71.02c-0.9,0-1.48-0.84-1.48-2.18c0-1.32,0.58-2.12,1.48-2.12
			c0.91,0,1.48,0.79,1.48,2.12C301.98,70.17,301.41,71.02,300.5,71.02z"/>
		<path class="st2" d="M309.72,67.6c0-1.58-1.16-2.07-2.57-2.07l-2.39,0l0.01,6.64l1.51,0l0-2.39l0.81,0l1.28,2.39l1.68,0l-1.5-2.66
			C309.24,69.2,309.72,68.58,309.72,67.6z M307.03,68.6l-0.76,0l0-1.86l0.76,0c0.78,0,1.21,0.22,1.21,0.88
			C308.24,68.26,307.82,68.59,307.03,68.6z"/>
	</g>
</g>
<g class="st1">
	<g>
		<g>
			<g>
				<g>
					<path class="st2" d="M180.85,353.98l-1.94,0.84c-0.88,0.38-1.29,1.39-0.91,2.26l1.19,2.75l1.82-0.79l-1.09-2.52l1.49-0.65
						l1.09,2.52l1.82-0.79l-1.19-2.75C182.75,353.99,181.73,353.6,180.85,353.98z"/>
				</g>
				<g>
					
						<rect x="193.91" y="375.32" transform="matrix(0.9175 -0.3977 0.3977 0.9175 -136.8582 109.243)" class="st2" width="1.98" height="18.4"/>
				</g>
				<g>
					
						<rect x="190.6" y="376.75" transform="matrix(0.9175 -0.3977 0.3977 0.9175 -137.7022 108.0461)" class="st2" width="1.98" height="18.4"/>
				</g>
			</g>
			<g>
				<g>
					<path class="st2" d="M238.14,329.14l-1.94,0.84c-0.88,0.38-1.29,1.39-0.91,2.26l1.19,2.75l1.82-0.79l-1.09-2.52l1.49-0.65
						l1.09,2.52l1.82-0.79l-1.19-2.75C240.04,329.16,239.02,328.76,238.14,329.14z"/>
				</g>
				<g>
					
						<rect x="251.2" y="350.49" transform="matrix(0.9175 -0.3977 0.3977 0.9175 -122.2546 129.9794)" class="st2" width="1.98" height="18.4"/>
				</g>
				<g>
					
						<rect x="247.89" y="351.92" transform="matrix(0.9175 -0.3977 0.3977 0.9175 -123.0979 128.7817)" class="st2" width="1.98" height="18.4"/>
				</g>
			</g>
		</g>
		<g>
			<path class="st2" d="M258.77,367.5c-0.4-0.81-1.38-1.16-2.23-0.79l-62.83,27.24c-0.85,0.37-1.26,1.33-0.95,2.17
				c1.21,4.83,2.67,10.64,2.83,11c0.37,0.86,1.38,1.25,2.25,0.87l66.13-28.67c0.87-0.38,1.27-1.38,0.9-2.23
				C264.71,376.72,261.47,371.68,258.77,367.5z M197.33,406.06c-0.38-1.39-1.76-6.88-2.65-10.42l62.43-27.06
				c2,3.09,5.09,7.91,5.8,9.05L197.33,406.06z"/>
		</g>
		<g>
			<path class="st2" d="M244.85,332.26c-0.38-0.87-1.4-1.26-2.27-0.88l-65,28.18c-0.88,0.38-1.29,1.39-0.91,2.26l7.16,16.51
				c0.38,0.87,1.4,1.26,2.27,0.88l65-28.18c0.88-0.38,1.29-1.4,0.91-2.26L244.85,332.26z M185.54,377.31l-6.96-16.06l64.55-27.98
				l6.96,16.06L185.54,377.31z"/>
		</g>
	</g>
	<g>
		<g>
			<polygon class="st2" points="209.73,401.61 262.96,420.6 263.65,418.75 212.38,400.46 			"/>
		</g>
	</g>
	<g>
		<g>
			<polygon class="st2" points="224.38,435.78 226.2,436.54 248.73,384.71 246.08,385.85 			"/>
		</g>
	</g>
	<g>
		
			<rect x="226.81" y="422.54" transform="matrix(0.9175 -0.3977 0.3977 0.9175 -148.448 131.3449)" class="st2" width="31.17" height="1.95"/>
	</g>
	<g>
		<path class="st2" d="M193.11,360.16l-1.74,0.76l2.64,6.1l1.83-0.79c1.81-0.78,2.6-2.29,1.69-4.39
			C196.62,359.74,195.01,359.34,193.11,360.16z M195.19,365.18l-0.27,0.11l-1.68-3.87l0.27-0.12c1.04-0.45,1.95-0.31,2.58,1.15
			C196.73,363.91,196.24,364.72,195.19,365.18z"/>
		
			<rect x="198.64" y="357.73" transform="matrix(0.9175 -0.3977 0.3977 0.9175 -127.1501 109.0902)" class="st2" width="1.53" height="6.64"/>
		<path class="st2" d="M205.66,356.98c-0.63-1.45-1.9-1.43-3.21-0.86l-2.23,0.97l2.64,6.1l1.4-0.61l-0.95-2.2l0.76-0.33l2.14,1.68
			l1.56-0.68l-2.45-1.84C205.85,358.64,206.05,357.87,205.66,356.98z M203.55,358.97l-0.71,0.31l-0.74-1.71l0.71-0.31
			c0.73-0.32,1.22-0.28,1.48,0.31C204.54,358.17,204.28,358.65,203.55,358.97z"/>
		<polygon class="st2" points="209.59,358.88 208.99,357.48 211.09,356.56 210.59,355.41 208.49,356.33 207.96,355.1 210.43,354.03 
			209.93,352.87 206.05,354.55 208.69,360.65 212.67,358.92 212.16,357.77 		"/>
		<path class="st2" d="M216.04,356.19c-0.9,0.39-1.81-0.08-2.36-1.33c-0.53-1.22-0.18-2.26,0.68-2.63c0.44-0.19,0.81-0.14,1.24,0.01
			l0.4-1.18c-0.6-0.24-1.41-0.33-2.17,0c-1.59,0.69-2.44,2.46-1.56,4.48c0.89,2.05,2.66,2.56,4.26,1.86
			c0.77-0.33,1.32-0.94,1.57-1.75l-1.13-0.5C216.82,355.59,216.55,355.96,216.04,356.19z"/>
		<polygon class="st2" points="221.42,349.27 220.92,348.11 216.12,350.19 216.62,351.35 218.33,350.61 220.47,355.54 
			221.86,354.94 219.72,350 		"/>
		<path class="st2" d="M224.07,346.61c-1.66,0.72-2.31,2.36-1.45,4.35c0.86,1.99,2.53,2.69,4.19,1.97c1.67-0.72,2.29-2.41,1.42-4.4
			C227.38,346.54,225.74,345.88,224.07,346.61z M226.3,351.74c-0.83,0.36-1.71-0.18-2.24-1.4c-0.53-1.22-0.3-2.18,0.53-2.54
			c0.84-0.37,1.69,0.13,2.22,1.35C227.34,350.37,227.14,351.37,226.3,351.74z"/>
		<path class="st2" d="M233.52,344.9c-0.63-1.45-1.9-1.43-3.21-0.86l-2.23,0.97l2.64,6.1l1.4-0.61l-0.95-2.2l0.76-0.33l2.14,1.68
			l1.56-0.68l-2.45-1.84C233.71,346.56,233.91,345.79,233.52,344.9z M231.41,346.89l-0.71,0.31l-0.74-1.71l0.71-0.31
			c0.73-0.32,1.22-0.28,1.48,0.32C232.41,346.09,232.14,346.57,231.41,346.89z"/>
	</g>
</g>
<g class="st1">
	<g>
		<g>
			<g>
				<g>
					<polygon class="st2" points="369.52,65.69 358.5,65.1 358.89,57.77 357.04,57.67 356.55,66.85 371.26,67.64 371.76,58.46 
						369.91,58.36 					"/>
				</g>
			</g>
			<g>
				<g>
					<path class="st2" d="M374.43,56.95c0,0.09-0.08,0.16-0.17,0.15l-19.56-1.05c-0.09,0-0.16-0.08-0.15-0.17l0.11-2.04l-1.85-0.1
						l-0.11,2.04c-0.06,1.11,0.79,2.06,1.9,2.12l19.56,1.05c1.11,0.06,2.06-0.79,2.12-1.9l0.11-2.04l-1.85-0.1L374.43,56.95z"/>
				</g>
			</g>
		</g>
		<g>
			<g>
				<path class="st2" d="M400.66,27.94l-0.59,10.91l17.38,8.83l2.57,0.14l1.43-26.65l-2.57-0.14L400.66,27.94z M419.5,22.92
					l-1.23,22.95l-0.33-0.02l-17.07-8.67l0.4-7.49l17.9-6.79L419.5,22.92z"/>
			</g>
		</g>
		<g>
			<g>
				<path class="st2" d="M400.03,10.07L338.4,6.77c-1.52-0.08-2.82,1.09-2.9,2.6l-2.22,41.31c-0.08,1.52,1.09,2.82,2.6,2.9
					l61.63,3.31c1.52,0.08,2.82-1.09,2.9-2.6l2.22-41.31C402.71,11.45,401.54,10.15,400.03,10.07z M398.57,54.18
					c-0.03,0.5-0.45,0.88-0.95,0.85l-61.63-3.31c-0.5-0.03-0.88-0.45-0.85-0.95l2.22-41.31c0.03-0.5,0.45-0.88,0.95-0.85l61.63,3.31
					c0.5,0.03,0.88,0.45,0.85,0.95L398.57,54.18z"/>
			</g>
			<g>
				<path class="st2" d="M380.77,2.63l-24.98-1.34c-1.11-0.06-2.06,0.79-2.12,1.9l-0.33,6.23l29,1.56l0.33-6.23
					C382.74,3.64,381.88,2.69,380.77,2.63z M380.59,9.03l-25.3-1.36l0.23-4.38c0-0.09,0.08-0.16,0.17-0.15l24.98,1.34
					c0.09,0,0.16,0.08,0.15,0.17L380.59,9.03z"/>
			</g>
			<g>
				<g>
					<polygon class="st2" points="371,3.11 371.17,0 369.31,0 369.15,3.01 					"/>
				</g>
				<g>
					<polygon class="st2" points="365.43,2.81 365.58,0 363.73,0 363.58,2.71 					"/>
				</g>
			</g>
		</g>
		<g>
			<path class="st2" d="M370.34,28.48l-27.02-1.45c-1.11-0.06-2.06,0.79-2.12,1.9l-0.98,18.33c-0.06,1.11,0.79,2.06,1.9,2.12
				l27.02,1.45c1.11,0.06,2.06-0.79,2.12-1.9l0.98-18.33C372.3,29.49,371.45,28.54,370.34,28.48z M369.41,48.82
				c0,0.09-0.08,0.16-0.17,0.15l-27.02-1.45c-0.09,0-0.16-0.08-0.15-0.17l0.98-18.33c0-0.09,0.08-0.16,0.17-0.15l27.02,1.45
				c0.09,0,0.16,0.08,0.15,0.17L369.41,48.82z"/>
		</g>
		<g>
			<path class="st2" d="M374.98,14.66c-2.21-0.12-4.1,1.58-4.22,3.79c-0.12,2.21,1.58,4.1,3.79,4.22c2.21,0.12,4.1-1.58,4.22-3.79
				C378.89,16.67,377.19,14.77,374.98,14.66z M374.65,20.82c-1.19-0.06-2.11-1.08-2.04-2.27c0.06-1.19,1.08-2.1,2.27-2.04
				c1.19,0.06,2.1,1.08,2.04,2.27C376.86,19.97,375.84,20.88,374.65,20.82z"/>
		</g>
		<g>
			<path class="st2" d="M386.05,15.25c-2.21-0.12-4.1,1.58-4.22,3.79c-0.12,2.21,1.58,4.1,3.79,4.22c2.21,0.12,4.1-1.58,4.22-3.79
				C389.96,17.26,388.26,15.37,386.05,15.25z M385.72,21.41c-1.19-0.06-2.11-1.08-2.04-2.27c0.06-1.19,1.08-2.1,2.27-2.04
				c1.19,0.06,2.1,1.08,2.04,2.27C387.93,20.56,386.91,21.48,385.72,21.41z"/>
		</g>
		<g>
			<g>
				<path class="st2" d="M392.63,0h-13.29c1.77,0.77,3.7,1.26,5.75,1.37C387.77,1.51,390.33,1,392.63,0z"/>
			</g>
		</g>
	</g>
	<g>
		<g>
			<polygon class="st2" points="352.5,7.87 346.81,0 344.53,0 351,8.95 			"/>
		</g>
	</g>
	<g>
		<g>
			<polygon class="st2" points="388.11,10.83 395.31,0 393.09,0 386.56,9.8 			"/>
		</g>
	</g>
</g>
<g class="st1">
	<g>
		<g>
			<g>
				<g>
					<polygon class="st2" points="2.92,270.76 1.26,271.58 4.49,278.16 0,280.37 0,282.43 6.97,279 					"/>
				</g>
			</g>
			<g>
				<g>
					<path class="st2" d="M6.17,267.31l-0.9-1.84l-1.66,0.82l0.9,1.84c0.04,0.08,0.01,0.18-0.07,0.22L0,270.53v2.06l5.26-2.58
						C6.25,269.52,6.66,268.31,6.17,267.31z"/>
				</g>
			</g>
		</g>
		<g>
			<g>
				<path class="st2" d="M25.73,215.07l-12.52,14.94l4.82,9.8l19.47-0.79l2.31-1.13l-11.78-23.95L25.73,215.07z M37.04,237.19
					l-19.13,0.78l-3.31-6.73l12.3-14.68l0.3-0.15l10.14,20.63L37.04,237.19z"/>
			</g>
		</g>
		<g>
			<g>
				<path class="st2" d="M25.88,253.11L7.62,215.98c-0.67-1.36-2.32-1.93-3.69-1.26L0,216.66v2.06l4.75-2.34
					c0.45-0.22,0.99-0.04,1.21,0.41l18.26,37.13c0.22,0.45,0.03,0.99-0.41,1.21L0,266.84v2.06l24.62-12.11
					C25.98,256.12,26.55,254.47,25.88,253.11z"/>
			</g>
		</g>
		<g>
			<path class="st2" d="M0,229.16v1.11C0.06,229.9,0.05,229.53,0,229.16z"/>
		</g>
	</g>
</g>
<g class="st1">
	<g>
		<g>
			<g>
				<g>
					<path class="st2" d="M225.51,150.27c-0.65,0.49-1.28,1.01-1.85,1.57c-0.86,0.84-2.33,2.55-3.17,3.06
						c-1.4,0.84-3,0.38-4.05-1.26c-2.09-3.24-5.51-10.55-4.6-12.31c0.52-1,1.79-2.42,2.92-3.67c0.95-1.06,1.86-2.06,2.38-2.88
						c0.37-0.57,0.75-1.31,0.41-2.02c-0.25-0.52-0.74-1.31-1.23-2.04c-0.67,0.19-1.37,0.31-2.01,0.28c0.55,0.8,1.2,1.79,1.51,2.39
						c-0.03,0.08-0.09,0.21-0.22,0.41c-0.45,0.69-1.3,1.64-2.2,2.65c-1.25,1.4-2.55,2.84-3.18,4.04
						c-1.83,3.52,4.62,14.03,4.68,14.13c1.74,2.69,4.78,3.32,7.12,1.4l0.16-0.06l0.14-0.15c0.85-0.91,1.72-1.81,2.61-2.67
						c0.84-0.82,1.79-1.57,2.82-2.24c0.08-0.05,0.16-0.1,0.24-0.15C227.1,150.86,226.23,150.74,225.51,150.27z"/>
				</g>
				<g>
					<path class="st2" d="M231.72,126.61c-1.36,0.07-3.21,0.66-5,1.23c-1.14,0.36-2.21,0.7-3.02,0.86
						c-0.42,0.08-0.65,0.09-0.76,0.09c-0.51-0.64-1.32-1.97-1.85-2.86c-0.22,0.75-0.5,1.46-0.86,2.08c0.49,0.78,1.04,1.62,1.43,2.08
						c0.56,0.65,1.53,0.56,2.4,0.39c0.9-0.18,2.02-0.54,3.21-0.91c1.6-0.51,3.42-1.09,4.54-1.15c1.97-0.11,7.23,6.02,9.32,9.26
						c0.55,0.85,0.76,1.71,0.62,2.49c-0.12,0.69-0.51,1.32-1.14,1.71c-1.09,0.68-2.97,1.2-4.1,1.64c-0.74,0.29-1.47,0.65-2.19,1.04
						c-0.29,1.1-0.83,2.18-1.48,3.09c0.33-0.25,0.71-0.52,1.14-0.8c1.03-0.67,2.11-1.22,3.2-1.65c1.15-0.45,2.33-0.88,3.51-1.28
						l0.23-0.1l0.08-0.08c0.18-0.09,0.36-0.19,0.52-0.3c1.09-0.7,1.81-1.76,2.02-2.98c0.22-1.24-0.09-2.55-0.89-3.79
						C242.6,136.6,235.69,126.4,231.72,126.61z"/>
				</g>
			</g>
			<g>
				<g>
					<path class="st2" d="M238.7,175.17c-0.95-1.3-2.17-3.06-3.57-5.11c-2.63-3.82-5.62-8.14-8.14-11.31
						c-1.44-1.81-3.14-3.42-3.96-4.1c-0.05,0.05-0.1,0.1-0.15,0.15c-0.35,0.35-0.78,0.76-1.25,1.04c0.51,0.37,2.13,1.75,3.94,4.03
						c2.48,3.12,5.45,7.42,8.07,11.21c1.42,2.05,2.64,3.82,3.6,5.14c6.47,8.86,16.74,19.06,20.42,22.63l1.57-1.01
						C255.88,194.64,245.28,184.19,238.7,175.17z"/>
					<path class="st2" d="M250.14,160.84c-2.31-3.84-5.2-8.61-7.06-12.25c-1.4-2.72-1.91-4.47-2.01-5.04
						c-0.17,0.08-0.33,0.15-0.48,0.22c-0.41,0.19-0.8,0.38-1.21,0.49c0.26,1.04,0.98,2.99,2.09,5.16c1.89,3.7,4.79,8.5,7.12,12.36
						c1.19,1.97,2.25,3.74,3.02,5.08c5.88,10.28,10.75,23.76,12.23,28.04l1.57-1.01c-1.66-4.74-6.46-17.84-12.22-27.92
						C252.41,164.6,251.33,162.82,250.14,160.84z"/>
				</g>
			</g>
		</g>
		<g>
			<path class="st2" d="M210.32,117.04c-3.19,2.06-3.83,6.74-1.44,10.44c2.39,3.7,6.93,5.04,10.11,2.99
				c3.19-2.06,3.83-6.74,1.44-10.44C218.04,116.33,213.51,114.99,210.32,117.04z M218,128.95c-2.34,1.51-5.75,0.41-7.6-2.45
				c-1.85-2.86-1.44-6.42,0.9-7.93c2.34-1.51,5.75-0.42,7.6,2.45C220.75,123.88,220.35,127.43,218,128.95z"/>
		</g>
		<g>
			<g>
				<g>
					<polygon class="st2" points="248.63,204.19 251.29,208.33 252.82,207.34 251.14,204.73 273.41,190.36 275.09,192.97 
						276.62,191.99 273.95,187.85 					"/>
				</g>
			</g>
			<g>
				<path class="st2" d="M279.57,189.09l-32.14,20.74c-1.78,1.15-2.3,3.54-1.15,5.32l1.73,2.69l38.61-24.92l-1.73-2.69
					C283.75,188.45,281.36,187.93,279.57,189.09z M248.56,215.32l-0.75-1.16c-0.61-0.94-0.34-2.2,0.61-2.81l32.14-20.74
					c0.94-0.61,2.2-0.34,2.81,0.61l0.75,1.16L248.56,215.32z"/>
			</g>
		</g>
		<g>
			<path class="st2" d="M222.05,135.21c-4.05,2.62-5.22,8.04-2.61,12.1c2.62,4.05,8.04,5.23,12.1,2.61
				c4.06-2.62,5.23-8.04,2.61-12.1C231.53,133.77,226.1,132.6,222.05,135.21z M230.55,148.39c-3.21,2.07-7.51,1.15-9.58-2.07
				c-2.07-3.21-1.15-7.51,2.07-9.59c3.21-2.07,7.51-1.15,9.59,2.07C234.69,142.02,233.77,146.32,230.55,148.39z"/>
		</g>
	</g>
	<g>
		<path class="st2" d="M238.31,160.46c-2.4,1.64-4.71,0.52-4.81,0.47l-0.42,0.81l-0.42,0.81c0.13,0.07,2.86,1.46,5.87-0.1
			l22.51,34.88l1.53-0.99l-23.49-36.41L238.31,160.46z"/>
	</g>
	<g>
		<path class="st2" d="M240.72,156.37c0,0.02,0.32,2.33-2.31,4.03c-0.02,0.01-0.04,0.03-0.07,0.04l0.97,1.54
			c0.03-0.02,0.06-0.04,0.09-0.05c3.6-2.32,3.14-5.68,3.12-5.83L240.72,156.37z"/>
	</g>
</g>
<g class="st1">
	<g>
		<g>
			<g>
				<g>
					<path class="st2" d="M294.01,10.56c0.05-2,0.19-5.9,0.51-10.56h-1.82c-0.29,4.32-0.43,7.99-0.49,10.08L294.01,10.56z"/>
					<path class="st2" d="M301.12,12.43c1.27-2.35,3.69-6.97,6.21-12.43h-2c-2.52,5.4-4.89,9.88-6.02,11.96L301.12,12.43z"/>
				</g>
			</g>
		</g>
		<g>
			<g>
				<g>
					<polygon class="st2" points="280.94,11.76 282.69,12.23 283.49,9.22 309.11,15.98 308.32,18.98 310.08,19.45 311.34,14.68 
						282.19,7 					"/>
				</g>
			</g>
			<g>
				<path class="st2" d="M314.22,19.67l-36.99-9.75c-2.05-0.54-4.16,0.69-4.71,2.74l-0.82,3.09l44.44,11.71l0.82-3.09
					C317.5,22.32,316.27,20.21,314.22,19.67z M315.2,23.91l-0.35,1.33l-40.92-10.79l0.35-1.33c0.29-1.08,1.4-1.73,2.48-1.45
					l36.99,9.75C314.84,21.72,315.49,22.83,315.2,23.91z"/>
			</g>
		</g>
	</g>
	<g>
		<polygon class="st2" points="297.4,12 300.56,0 298.68,0 295.64,11.54 		"/>
	</g>
</g>
<g class="st1">
	<g>
		<g>
			<g>
				<g>
					<path class="st2" d="M312.37,385.04c-0.08,0.03-0.22,0.07-0.45,0.11c-0.81,0.14-2.09,0.15-3.44,0.16
						c-1.88,0.01-3.82,0.03-5.13,0.38c-3.84,1.03-7.25,12.87-7.28,12.99c-0.82,3.1,0.77,5.77,3.77,6.2l0.15,0.07l0.2,0
						c1.24,0.01,2.5,0.05,3.73,0.12c1.17,0.07,2.37,0.26,3.55,0.57c0.09,0.02,0.18,0.05,0.27,0.08c-0.68-0.58-1.17-1.3-1.31-2.15
						c-0.8-0.15-1.61-0.26-2.4-0.31c-1.2-0.07-3.45,0-4.4-0.28c-1.56-0.47-2.3-1.96-1.8-3.84c0.98-3.73,4.08-11.18,5.99-11.69
						c1.09-0.29,2.99-0.31,4.67-0.32c1.43-0.01,2.78-0.02,3.73-0.18c0.67-0.11,1.47-0.33,1.77-1.05c0.22-0.53,0.47-1.43,0.68-2.28
						c-0.6-0.37-1.15-0.81-1.56-1.3C312.89,383.26,312.6,384.4,312.37,385.04z"/>
				</g>
				<g>
					<path class="st2" d="M323.81,389.35c-1.03-0.6-2.01-1.16-2.67-1.64c-0.35-0.26-0.51-0.42-0.58-0.5
						c0.13-0.81,0.56-2.31,0.86-3.3c-0.7,0.35-1.41,0.62-2.12,0.77c-0.25,0.89-0.5,1.86-0.57,2.46c-0.11,0.85,0.61,1.51,1.33,2.03
						c0.74,0.54,1.76,1.13,2.84,1.75c1.46,0.84,3.11,1.79,3.91,2.58c1.41,1.38,0.43,9.4-0.55,13.13c-0.26,0.97-0.75,1.71-1.42,2.14
						c-0.59,0.38-1.31,0.51-2.04,0.31c-1.24-0.34-2.89-1.39-3.97-1.92c-0.72-0.35-1.48-0.65-2.25-0.92
						c-1.01,0.52-2.17,0.86-3.28,0.99c0.41,0.08,0.87,0.18,1.35,0.3c1.19,0.31,2.32,0.73,3.37,1.25c1.11,0.55,2.22,1.13,3.31,1.73
						l0.23,0.1l0.12,0.01c0.19,0.07,0.38,0.14,0.57,0.19c1.25,0.33,2.52,0.15,3.56-0.52c1.06-0.68,1.83-1.79,2.2-3.21
						c0.03-0.12,2.9-12.1,0.07-14.89C327.12,391.26,325.43,390.29,323.81,389.35z"/>
				</g>
			</g>
			<g>
				<g>
					<path class="st2" d="M298.29,424.03c1.04-4.52,2.22-9.64,2.87-13.64c0.37-2.29,0.41-4.62,0.36-5.69
						c-0.07,0-0.15-0.01-0.22-0.01c-0.49-0.02-1.09-0.06-1.61-0.22c0.07,0.62,0.14,2.75-0.32,5.63c-0.63,3.94-1.81,9.03-2.84,13.52
						c-0.56,2.43-1.05,4.53-1.37,6.13c-1.29,6.36-2.03,14-2.45,20.25h1.82c0.42-6.16,1.15-13.66,2.41-19.89
						C297.25,428.53,297.73,426.44,298.29,424.03z"/>
					<path class="st2" d="M315.23,428.89c1.27-4.3,2.86-9.64,4.29-13.47c1.07-2.87,2.01-4.42,2.37-4.89
						c-0.17-0.07-0.34-0.14-0.49-0.21c-0.42-0.17-0.82-0.34-1.18-0.56c-0.59,0.9-1.55,2.74-2.4,5.02
						c-1.45,3.89-3.05,9.27-4.33,13.59c-0.65,2.2-1.24,4.18-1.71,5.65c-1.73,5.37-4.15,11.06-6.44,15.98h2
						c2.21-4.8,4.51-10.25,6.17-15.42C313.98,433.1,314.57,431.1,315.23,428.89z"/>
				</g>
			</g>
		</g>
		<g>
			<path class="st2" d="M320.72,369.95c-3.67-0.97-7.56,1.71-8.69,5.98c-1.12,4.26,0.94,8.52,4.61,9.48
				c3.67,0.97,7.56-1.71,8.69-5.98S324.39,370.92,320.72,369.95z M323.58,378.97c-0.87,3.29-3.77,5.39-6.46,4.68
				c-2.7-0.71-4.18-3.97-3.32-7.26c0.87-3.29,3.77-5.39,6.46-4.68C322.96,372.42,324.44,375.68,323.58,378.97z"/>
		</g>
		<g>
			<path class="st2" d="M315.21,390.87c-4.67-1.23-9.46,1.57-10.69,6.23c-1.23,4.67,1.57,9.46,6.23,10.69
				c4.67,1.23,9.46-1.57,10.69-6.23C322.67,396.89,319.88,392.1,315.21,390.87z M319.68,401.1c-0.97,3.7-4.77,5.91-8.47,4.94
				c-3.7-0.97-5.91-4.77-4.94-8.47c0.97-3.7,4.77-5.91,8.47-4.94C318.44,393.6,320.66,397.4,319.68,401.1z"/>
		</g>
	</g>
	<g>
		<path class="st2" d="M307.53,419.9c-2.83-0.67-3.56-3.13-3.58-3.23l-0.88,0.24l-0.88,0.23c0.04,0.14,0.85,3.09,4.04,4.27
			l-7.54,28.6h1.88l7.88-29.89L307.53,419.9z"/>
	</g>
	<g>
		<path class="st2" d="M307.64,419.93c-0.03-0.01-0.05-0.01-0.08-0.02l-0.48,1.75c0.03,0.01,0.07,0.02,0.1,0.03
			c4.14,1.09,6.32-1.51,6.41-1.62l-1.41-1.15C312.16,418.93,310.67,420.72,307.64,419.93z"/>
	</g>
</g>
<g class="st1">
	<g>
		<g>
			<path class="st2" d="M382.46,124.71c1.19-1.76,1.57-4.15-0.43-6.48c-0.2-0.23-0.42-0.44-0.66-0.62c1.01-1.56,1.06-3.42,0.13-5.25
				c-0.63-1.23-1.75-2.07-3.24-2.44c-1.55-0.38-3.44-0.19-5.02,0.46c-0.13-0.2-0.28-0.39-0.44-0.58c-0.35-0.41-0.77-0.75-1.24-1
				c1.01-1.94,0.73-4.07-0.8-5.85c-1.49-1.74-4.23-2.05-6.81-0.93c-0.42-1.31-1.39-2.37-2.8-3.07c-1.54-0.76-3.35-0.57-5.07,0.52
				c-1.7,1.08-3.09,2.94-3.5,4.65c-2.78-0.75-6.08,0.15-7.01,3.82c-0.04,0.16-0.07,0.31-0.09,0.47c-1.05-0.03-2.13,0.31-3.19,0.98
				c-1.7,1.08-3.08,2.93-3.49,4.65c-2.79-0.74-6.08,0.15-7.01,3.82c-0.23,0.9-0.17,1.82,0.15,2.71l2.19,0.54
				c-0.12-0.15-0.23-0.31-0.33-0.47c-0.47-0.78-0.61-1.58-0.41-2.36c0.86-3.35,3.92-2.88,4.84-2.66c0.33,0.08,0.65,0.19,0.97,0.33
				l1.22,0.53l-0.06-1.33c-0.01-0.25,0-0.44,0.03-0.59c0.27-1.33,1.42-2.87,2.8-3.75c0.69-0.44,1.75-0.91,2.89-0.63l0,0l1.13,0.29
				l-0.1-1.17c-0.03-0.32,0-0.63,0.08-0.93c0.86-3.35,3.92-2.88,4.84-2.66c0.33,0.08,0.65,0.19,0.97,0.33l1.22,0.53l-0.06-1.33
				c-0.01-0.25,0-0.44,0.03-0.59c0.27-1.33,1.42-2.88,2.8-3.76c0.82-0.52,2.2-1.04,3.44-0.43c1.3,0.64,2.01,1.61,2.11,2.88l0.1,1.34
				l1.15-0.69c1.39-0.83,3-1.16,4.2-0.86c0.62,0.15,1.13,0.46,1.52,0.92c1.7,1.98,0.83,3.77,0.16,4.67l-0.73,0.98l1.18,0.33
				c0.59,0.16,1.06,0.45,1.43,0.88c0.24,0.28,0.44,0.58,0.62,0.94l0.39,0.77l0.76-0.41c1.34-0.73,3.17-1,4.56-0.66
				c1.02,0.25,1.75,0.78,2.15,1.58c0.99,1.94,0.28,3.33-0.49,4.15l-0.79,0.84l1.05,0.48c0.39,0.18,0.71,0.41,0.97,0.72
				c2.03,2.37,0.46,4.44-0.31,5.21l-1.1,1.11l1.71,0.33c0.62,0.15,1.13,0.46,1.52,0.91c0.99,1.15,1.25,2.37,0.76,3.62
				c-0.32,0.83-0.99,1.61-1.79,2.21l1.97,0.48c0.59-0.62,1.08-1.33,1.37-2.09c0.7-1.81,0.33-3.69-1.05-5.3
				C383.47,125.34,383,124.98,382.46,124.71z"/>
		</g>
		<path class="st2" d="M330.06,125.19L321.42,175l31,7.57c0.44-0.32,0.92-0.61,1.36-0.85c0.18-0.1,0.39-0.24,0.62-0.37l-31.08-7.59
			l8.35-48.17l50.44,12.32l-14.17,44.6c0.23,0.23,0.43,0.5,0.57,0.74c0.22,0.35,0.41,0.71,0.6,1.07l14.66-46l1.29-5.3l-53.78-13.14
			L330.06,125.19z M332.52,121.89l50.55,12.35l-0.51,2.07l-50.55-12.35L332.52,121.89z"/>
		<g>
			<g>
				<path class="st2" d="M356.58,192.12c-2.07,0-4.46-1.08-5.82-2.61c-0.98-1.11-1.41-2.39-1.25-3.72c0.43-3.45,3.07-4.67,5.4-4.67
					c1.69,0,3.4,0.6,4.58,1.61c0.05,0.04,0.1,0.09,0.15,0.13c1.39-1.21,3.43-2.02,5.22-2.02c1.52,0,2.79,0.55,3.68,1.58
					c1.36,1.58,1.73,3.44,1.04,5.22c-0.83,2.16-3.14,3.93-5.48,4.23c-1.71,0.21-3.21-0.12-4.33-1c-0.76,0.67-1.63,1.1-2.47,1.21
					C357.07,192.1,356.83,192.12,356.58,192.12z M354.92,182.61c-1.05,0-3.53,0.33-3.91,3.36c-0.11,0.9,0.19,1.75,0.88,2.54
					c1.2,1.35,3.52,2.31,5.21,2.07c0.68-0.09,1.47-0.57,2.1-1.26l0.55-0.61l0.56,0.61c0.83,0.91,2.09,1.24,3.6,1.05
					c1.77-0.22,3.64-1.66,4.26-3.28c0.49-1.26,0.22-2.54-0.78-3.7c-0.6-0.7-1.46-1.06-2.54-1.06c-1.62,0-3.58,0.87-4.67,2.08
					l-0.55,0.61l-0.56-0.61c-0.18-0.19-0.36-0.38-0.57-0.56C357.62,183.09,356.24,182.61,354.92,182.61z"/>
			</g>
			<g>
				<path class="st2" d="M378.07,195.67C378.07,195.67,378.07,195.67,378.07,195.67c-0.76,0-1.47-0.15-2.04-0.44
					c-1.82-0.91-3.45-3.18-3.87-5.39c-0.32-1.65,0.03-3.1,1.01-4.2c1.09-1.23,2.42-1.88,3.86-1.88c2.94,0,5.46,2.59,6.1,4.99
					c0.62,2.34,0.12,4.31-1.45,5.68C380.8,195.2,379.42,195.67,378.07,195.67z M377.03,185.27c-1.01,0-1.93,0.46-2.74,1.37
					c-0.83,0.94-0.82,2.11-0.66,2.92c0.34,1.76,1.66,3.62,3.07,4.33c0.37,0.18,0.84,0.28,1.37,0.28c0,0,0,0,0,0
					c0.99,0,2.01-0.34,2.61-0.87c1.14-1,1.47-2.36,0.99-4.16C381.18,187.31,379.16,185.27,377.03,185.27z"/>
			</g>
		</g>
	</g>
	<g>
		<path class="st2" d="M329.12,136.98c-0.09,0.59-0.21,1.18-0.38,1.76l33.6-6.17c-1.18-0.33-2.34-0.68-3.46-1.05L329.12,136.98z"/>
	</g>
	<g>
		<path class="st2" d="M326.87,150.02l55.68-10.17c0.05-0.16,0.1-0.32,0.13-0.47c0.07-0.39,0.1-0.85,0.19-1.28l-56.29,10.28
			L326.87,150.02z"/>
	</g>
	<g>
		<path class="st2" d="M325.08,160.31l53.77-9.87c0.14-0.38,0.3-0.75,0.44-1.08c0.1-0.24,0.2-0.49,0.31-0.75l-54.07,9.87
			L325.08,160.31z"/>
	</g>
	<g>
		<path class="st2" d="M323.08,171.32l52.23-9.54c0.16-0.45,0.35-0.88,0.55-1.32c0.07-0.16,0.14-0.33,0.21-0.51l-53.29,9.73
			L323.08,171.32z"/>
	</g>
	<g>
		<path class="st2" d="M339.63,178.24l32.22-5.88c0.25-0.63,0.54-1.24,0.83-1.84l-36.78,6.72
			C337.16,177.49,338.43,177.83,339.63,178.24z"/>
	</g>
</g>
<g class="st1">
	<g>
		<g>
			<g>
				<g>
					<path class="st2" d="M231.01,262.77l-1.66,0.38l8.35,36.6c0.04,0.2-0.08,0.39-0.28,0.44l-70.54,16.09
						c-0.2,0.04-0.39-0.08-0.44-0.27l-8.35-36.6l-1.66,0.38l8.35,36.6c0.25,1.11,1.37,1.81,2.48,1.56l70.54-16.09
						c1.11-0.25,1.81-1.37,1.56-2.48L231.01,262.77z"/>
				</g>
			</g>
		</g>
		<g>
			<g>
				<path class="st2" d="M155.21,268.73c0.23,0.53,0.3,1.11,0.25,1.69l74.42-16.98l1.92,8.43l-76.94,17.55l-1.26-5.54
					c-0.3,0.22-0.62,0.4-0.99,0.51c-0.22,0.06-0.43,0.07-0.63,0.06l1.6,7.01l80.27-18.31l-2.68-11.75L155.21,268.73z"/>
			</g>
			<g>
				<g>
					<path class="st2" d="M143.78,262.71l5.3,5.71c0.06-0.11,0.11-0.24,0.18-0.34c-0.11-0.16-0.14-0.39-0.04-0.58
						c0.16-0.3,0.42-0.51,0.72-0.65l-3.76-4.05l57.86-53.67l5.88,6.34l-55.95,51.9c0.49,0.39,0.8,0.91,0.89,1.49l57.46-53.3
						l-8.2-8.84L143.78,262.71z"/>
				</g>
			</g>
			<g>
				<path class="st2" d="M150.91,265.92c-2.45,0.56-3.99,3.01-3.43,5.46c0.56,2.45,3.01,3.99,5.46,3.43
					c2.45-0.56,3.99-3.01,3.43-5.45S153.36,265.36,150.91,265.92z M152.55,273.15c-1.53,0.35-3.07-0.61-3.42-2.15
					c-0.35-1.53,0.61-3.07,2.15-3.42c1.53-0.35,3.06,0.61,3.41,2.15C155.05,271.26,154.09,272.8,152.55,273.15z"/>
			</g>
		</g>
	</g>
	<g>
		
			<rect x="169.49" y="281.6" transform="matrix(0.975 -0.2224 0.2224 0.975 -57.8994 50.7212)" class="st2" width="53.56" height="1.7"/>
	</g>
	<g>
		
			<rect x="171.32" y="289.63" transform="matrix(0.9749 -0.2224 0.2224 0.9749 -59.6523 51.3441)" class="st2" width="53.56" height="1.7"/>
	</g>
	<g>
		
			<rect x="173.11" y="297.47" transform="matrix(0.975 -0.2224 0.2224 0.975 -61.3387 51.9238)" class="st2" width="53.56" height="1.7"/>
	</g>
	<g>
		
			<rect x="154.29" y="272.67" transform="matrix(0.4966 -0.868 0.868 0.4966 -156.2074 277.7076)" class="st2" width="14.05" height="1.7"/>
	</g>
	<g>
		
			<rect x="167.12" y="269.75" transform="matrix(0.4966 -0.868 0.868 0.4966 -147.2126 287.3754)" class="st2" width="14.05" height="1.7"/>
	</g>
	<g>
		
			<rect x="179.77" y="266.86" transform="matrix(0.4966 -0.868 0.868 0.4966 -138.3333 296.9163)" class="st2" width="14.05" height="1.7"/>
	</g>
	<g>
		
			<rect x="192.52" y="263.95" transform="matrix(0.4966 -0.868 0.868 0.4966 -129.3906 306.5186)" class="st2" width="14.05" height="1.7"/>
	</g>
	<g>
		
			<rect x="205.28" y="261.04" transform="matrix(0.4966 -0.868 0.868 0.4966 -120.4468 316.1086)" class="st2" width="14.05" height="1.7"/>
	</g>
	<g>
		
			<rect x="218.23" y="258.09" transform="matrix(0.4966 -0.868 0.868 0.4966 -111.3665 325.8511)" class="st2" width="14.05" height="1.7"/>
	</g>
	<g>
		
			<rect x="154.12" y="253.22" transform="matrix(1 -5.877312e-03 5.877312e-03 1 -1.5269 0.9153)" class="st2" width="1.7" height="14.05"/>
	</g>
	<g>
		
			<rect x="163.75" y="244.26" transform="matrix(1 -5.884428e-03 5.884428e-03 1 -1.4759 0.9729)" class="st2" width="1.7" height="14.05"/>
	</g>
	<g>
		
			<rect x="173.26" y="235.42" transform="matrix(1 -5.877582e-03 5.877582e-03 1 -1.422 1.0275)" class="st2" width="1.7" height="14.05"/>
	</g>
	<g>
		
			<rect x="182.83" y="226.51" transform="matrix(1 -5.877683e-03 5.877683e-03 1 -1.3695 1.0837)" class="st2" width="1.7" height="14.05"/>
	</g>
	<g>
		
			<rect x="192.41" y="217.6" transform="matrix(1 -5.863541e-03 5.863541e-03 1 -1.3138 1.137)" class="st2" width="1.7" height="14.05"/>
	</g>
	<g>
		
			<rect x="202.13" y="208.55" transform="matrix(1 -5.863541e-03 5.863541e-03 1 -1.2606 1.1939)" class="st2" width="1.7" height="14.05"/>
	</g>
</g>
<g class="st1">
	<g>
		<g>
			<g>
				<g>
					<path class="st2" d="M10.51,141.85l16.09-33.92l-1.54-0.73L8.97,141.12c-0.09,0.18-0.3,0.26-0.49,0.17L0,137.27v1.89l7.76,3.68
						C8.79,143.32,10.03,142.88,10.51,141.85z"/>
				</g>
			</g>
		</g>
		<g>
			<g>
				<polygon class="st2" points="33.76,99.11 0,83.08 0,84.97 31.49,99.91 27.79,107.73 0,94.54 0,96.43 28.6,110 				"/>
			</g>
			<g>
				<g>
					<polygon class="st2" points="40.19,47.28 0,50.53 0,52.23 38.63,49.12 39.32,57.74 0,60.91 0,62.62 41.16,59.3 					"/>
				</g>
			</g>
		</g>
	</g>
	<g>
		<polygon class="st2" points="11.7,112.6 0,107.05 0,108.94 10.97,114.14 		"/>
	</g>
	<g>
		<polygon class="st2" points="8.17,120.04 0,116.16 0,118.05 7.44,121.58 		"/>
	</g>
	<g>
		<polygon class="st2" points="4.72,127.31 0,125.07 0,126.96 3.99,128.85 		"/>
	</g>
	<g>
		<polygon class="st2" points="6.84,86.64 0,89.4 0,91.24 7.47,88.22 		"/>
	</g>
	<g>
		
			<rect x="5.43" y="94.82" transform="matrix(0.9272 -0.3745 0.3745 0.9272 -34.9194 11.6266)" class="st2" width="14.05" height="1.7"/>
	</g>
	<g>
		
			<rect x="17.43" y="100.51" transform="matrix(0.9272 -0.3745 0.3745 0.9272 -36.1821 16.537)" class="st2" width="14.05" height="1.7"/>
	</g>
	<g>
		
			<rect x="0.5" y="54.83" transform="matrix(0.6138 -0.7895 0.7895 0.6138 -41.0542 27.445)" class="st2" width="14.05" height="1.7"/>
	</g>
	<g>
		
			<rect x="13.54" y="53.76" transform="matrix(0.6137 -0.7895 0.7895 0.6137 -35.1721 37.3278)" class="st2" width="14.05" height="1.7"/>
	</g>
	<g>
		
			<rect x="26.77" y="52.67" transform="matrix(0.6138 -0.7895 0.7895 0.6138 -29.199 47.3552)" class="st2" width="14.05" height="1.7"/>
	</g>
</g>
<g class="st1">
	<g>
		<g>
			<g>
				<g>
					<polygon class="st2" points="441.36,276.44 439.7,277.26 443.75,285.5 450,282.43 450,280.37 444.59,283.03 					"/>
				</g>
			</g>
			<g>
				<g>
					<path class="st2" d="M436.64,276.92l-0.9-1.84l-1.66,0.82l0.9,1.84c0.49,1,1.7,1.41,2.69,0.92l12.33-6.06v-2.06l-13.14,6.46
						C436.78,277.03,436.68,277,436.64,276.92z"/>
				</g>
			</g>
		</g>
		<g>
			<g>
				<path class="st2" d="M397.3,245.64l18.26,37.13c0.67,1.36,2.32,1.93,3.69,1.26L450,268.9v-2.06l-31.58,15.53
					c-0.45,0.22-0.99,0.04-1.21-0.41l-18.26-37.13c-0.22-0.45-0.04-0.99,0.41-1.21L450,218.72v-2.06l-51.45,25.3
					C397.19,242.63,396.63,244.28,397.3,245.64z"/>
			</g>
			<g>
				<path class="st2" d="M433.5,217.64l-22.45,11.04c-1,0.49-1.41,1.7-0.92,2.7l2.75,5.6l26.06-12.82l-2.75-5.6
					C435.71,217.56,434.5,217.15,433.5,217.64z M413.73,234.49l-1.93-3.93c-0.04-0.08-0.01-0.18,0.07-0.22l22.45-11.04
					c0.08-0.04,0.18-0.01,0.22,0.07l1.93,3.93L413.73,234.49z"/>
			</g>
			<g>
				<g>
					<path class="st2" d="M413.67,202.71l-3.76,1.85c0.42,0.47,0.8,0.97,1.17,1.49l3.01-1.48c-0.02-0.05-0.04-0.11-0.06-0.16
						C413.83,203.84,413.7,203.29,413.67,202.71z"/>
				</g>
				<g>
					<path class="st2" d="M419.59,211.53c-1.23-0.64-2.28-1.37-3.12-2.26l7.07,14.38l1.66-0.82l-5.55-11.28
						C419.64,211.54,419.61,211.54,419.59,211.53z"/>
				</g>
				<g>
					<path class="st2" d="M412.96,214.76l5.58,11.35l1.66-0.82l-7.27-14.78C413.18,211.89,413.14,213.35,412.96,214.76z"/>
				</g>
			</g>
		</g>
		<g>
			<g>
				<path class="st2" d="M390.04,199.34c-8.3,4.08-11.72,14.12-7.64,22.42c4.08,8.3,14.12,11.72,22.42,7.64
					c8.3-4.08,11.72-14.12,7.64-22.42C408.37,198.68,398.34,195.26,390.04,199.34z M404,227.73c-7.37,3.62-16.32,0.58-19.94-6.79
					c-3.62-7.37-0.58-16.32,6.79-19.94c7.37-3.62,16.32-0.58,19.94,6.79C414.42,215.16,411.37,224.11,404,227.73z"/>
			</g>
		</g>
		<g>
			<path class="st2" d="M439.72,246.21c-0.49-1-1.7-1.41-2.69-0.92l-24.28,11.94c-1,0.49-1.41,1.7-0.92,2.69l8.1,16.47
				c0.49,1,1.7,1.41,2.7,0.92l24.28-11.94c1-0.49,1.41-1.7,0.92-2.7L439.72,246.21z M446.09,263.71l-24.28,11.94
				c-0.08,0.04-0.18,0.01-0.22-0.07l-8.1-16.47c-0.04-0.08-0.01-0.18,0.07-0.22l24.28-11.94c0.08-0.04,0.18-0.01,0.22,0.07
				l8.1,16.47C446.2,263.58,446.17,263.67,446.09,263.71z"/>
		</g>
		<g>
			<path class="st2" d="M434.32,230.96c-1.98,0.98-2.81,3.38-1.83,5.37c0.98,1.98,3.39,2.81,5.37,1.83
				c1.98-0.98,2.81-3.38,1.83-5.37C438.72,230.81,436.31,229.99,434.32,230.96z M437.04,236.5c-1.07,0.53-2.37,0.08-2.89-0.99
				c-0.53-1.07-0.08-2.37,0.99-2.89c1.07-0.53,2.37-0.08,2.89,0.99C438.56,234.68,438.11,235.98,437.04,236.5z"/>
		</g>
		<g>
			<path class="st2" d="M444.27,226.07c-1.98,0.98-2.81,3.38-1.83,5.37c0.98,1.98,3.39,2.81,5.37,1.83c1.22-0.6,2-1.75,2.19-3v-1.11
				c-0.05-0.43-0.16-0.85-0.36-1.25C448.66,225.92,446.25,225.1,444.27,226.07z M446.99,231.61c-1.07,0.53-2.37,0.08-2.89-0.99
				c-0.53-1.07-0.08-2.37,0.99-2.89c1.07-0.53,2.37-0.08,2.89,0.99C448.5,229.79,448.06,231.08,446.99,231.61z"/>
		</g>
		<g>
			<g>
				<path class="st2" d="M392.56,204.47c-5.46,2.68-7.72,9.31-5.03,14.77c2.68,5.46,9.31,7.72,14.77,5.03
					c5.46-2.68,7.72-9.31,5.03-14.77C404.64,204.04,398.02,201.78,392.56,204.47z M401.48,222.6c-4.54,2.23-10.06,0.35-12.29-4.19
					c-2.23-4.54-0.36-10.06,4.19-12.29c4.54-2.23,10.06-0.35,12.29,4.19C407.9,214.86,406.02,220.37,401.48,222.6z"/>
			</g>
		</g>
		<g>
			<g>
				<path class="st2" d="M421.87,184.37c-8.3,4.08-11.72,14.12-7.64,22.42c4.08,8.3,14.12,11.72,22.42,7.64
					c8.3-4.08,11.72-14.12,7.64-22.42C440.2,183.71,430.17,180.29,421.87,184.37z M435.83,212.77c-7.37,3.62-16.32,0.58-19.94-6.79
					s-0.58-16.32,6.79-19.94c7.37-3.62,16.32-0.58,19.94,6.79C446.25,200.2,443.2,209.15,435.83,212.77z"/>
			</g>
		</g>
		<g>
			<g>
				<path class="st2" d="M424.39,189.5c-5.46,2.68-7.72,9.31-5.03,14.77s9.31,7.72,14.77,5.03c5.46-2.68,7.72-9.31,5.03-14.77
					C436.47,189.08,429.85,186.82,424.39,189.5z M433.31,207.64c-4.54,2.23-10.06,0.35-12.29-4.19c-2.23-4.54-0.36-10.06,4.19-12.29
					c4.54-2.23,10.06-0.35,12.29,4.19C439.73,199.89,437.85,205.41,433.31,207.64z"/>
			</g>
		</g>
	</g>
	<g>
		<g>
			<path class="st2" d="M396.47,230.44c-0.48,0.03-0.96,0.05-1.44,0.04l15.58,7.23l0.78-1.68l-12.77-5.92
				C397.79,230.3,396.98,230.4,396.47,230.44z"/>
		</g>
	</g>
	<g>
		<g>
			<path class="st2" d="M443.3,204.91l-1.24,16.16l1.85,0.14l1.35-17.54l-0.57-0.04C444.21,204.04,443.75,204.47,443.3,204.91z"/>
		</g>
	</g>
</g>
<g class="st1">
	<g>
		<g>
			<g>
				<g>
					<path class="st2" d="M392.95,109.79l16.09-33.92l-1.54-0.73l-16.09,33.92c-0.49,1.03-0.05,2.27,0.98,2.76L450,139.15v-1.89
						l-56.88-26.99C392.94,110.19,392.86,109.97,392.95,109.79z"/>
				</g>
			</g>
		</g>
		<g>
			<g>
				<path class="st2" d="M412.53,67.19L450,84.97v-1.89l-36.62-17.38C413.23,66.27,412.93,66.77,412.53,67.19z"/>
				<path class="st2" d="M408.92,68.76c-0.37-0.01-0.74-0.07-1.09-0.21c-0.21-0.09-0.38-0.21-0.53-0.34l-3.08,6.5L450,96.43v-1.89
					L406.49,73.9L408.92,68.76z"/>
			</g>
			<g>
				<g>
					<path class="st2" d="M413.03,65.6L450,62.62v-1.71l-36.74,2.97C413.4,64.49,413.32,65.09,413.03,65.6z"/>
					<path class="st2" d="M408.75,61.67c0.12-0.05,0.23-0.12,0.35-0.16c0.01-0.2,0.13-0.39,0.33-0.48c0.31-0.14,0.64-0.14,0.97-0.07
						l-0.44-5.5L450,52.23v-1.71l-41.87,3.38L408.75,61.67z"/>
				</g>
			</g>
			<g>
				<path class="st2" d="M411.74,60.84c-2.27-1.08-4.99-0.11-6.07,2.16c-1.08,2.27-0.11,4.99,2.16,6.07
					c2.27,1.08,4.99,0.11,6.07-2.16C414.98,64.64,414.01,61.92,411.74,60.84z M412.36,66.18c-0.67,1.42-2.38,2.03-3.8,1.35
					c-1.42-0.67-2.03-2.38-1.36-3.8c0.67-1.42,2.38-2.03,3.8-1.35C412.43,63.05,413.04,64.76,412.36,66.18z"/>
			</g>
		</g>
	</g>
	<g>
		<polygon class="st2" points="412.58,91.18 450,108.94 450,107.05 413.31,89.64 		"/>
	</g>
	<g>
		<polygon class="st2" points="409.05,98.62 450,118.05 450,116.16 409.78,97.08 		"/>
	</g>
	<g>
		<polygon class="st2" points="405.6,105.89 450,126.96 450,125.07 406.33,104.35 		"/>
	</g>
	<g>
		
			<rect x="408.18" y="72.4" transform="matrix(0.9272 -0.3745 0.3745 0.9272 2.7785 160.8078)" class="st2" width="14.05" height="1.7"/>
	</g>
	<g>
		
			<rect x="420.07" y="78.04" transform="matrix(0.9272 -0.3745 0.3745 0.9272 1.5336 165.6772)" class="st2" width="14.05" height="1.7"/>
	</g>
	<g>
		
			<rect x="431.8" y="83.61" transform="matrix(0.9272 -0.3744 0.3744 0.9272 0.3005 170.4627)" class="st2" width="14.05" height="1.7"/>
	</g>
	<g>
		<polygon class="st2" points="444.44,93.49 450,91.24 450,89.4 443.81,91.91 		"/>
	</g>
	<g>
		
			<rect x="411.42" y="58.05" transform="matrix(0.6138 -0.7894 0.7894 0.6138 115.0969 353.085)" class="st2" width="14.05" height="1.7"/>
	</g>
	<g>
		
			<rect x="424.52" y="56.97" transform="matrix(0.6138 -0.7894 0.7894 0.6138 121.0112 363.0171)" class="st2" width="14.05" height="1.7"/>
	</g>
	<g>
		
			<rect x="437.46" y="55.9" transform="matrix(0.6138 -0.7895 0.7895 0.6138 126.8501 372.8227)" class="st2" width="14.05" height="1.7"/>
	</g>
</g>
<g class="st1">
	<g>
		<g>
			<path class="st2" d="M236.99,14.28l3.99-9.75L229.9,0h-4.56l13.4,5.48l-3.34,8.15c-0.58,1.42-2.21,2.1-3.63,1.52L194.8,0h-4.55
				l40.87,16.74C233.42,17.69,236.05,16.58,236.99,14.28z"/>
		</g>
		<g>
			<path class="st2" d="M212.32,62.63l-41.1-16.84c-2.3-0.94-4.94,0.16-5.88,2.46l-4,9.76l24.8,10.13l24.65,10.12l3.99-9.75
				C215.72,66.2,214.62,63.57,212.32,62.63z M213.18,67.85L209.84,76l-23.05-9.47l-23.2-9.47l3.34-8.16
				c0.58-1.42,2.21-2.1,3.63-1.52l41.1,16.84C213.08,64.8,213.76,66.43,213.18,67.85z"/>
		</g>
		<g>
			<path class="st2" d="M227.14,26.45l-41.1-16.84c-2.3-0.94-4.94,0.16-5.88,2.46l-7.9,19.29c-0.94,2.3,0.16,4.94,2.46,5.88
				l41.1,16.84c2.3,0.94,4.94-0.16,5.88-2.46l7.9-19.29C230.54,30.03,229.44,27.39,227.14,26.45z M228,31.67l-7.9,19.29
				c-0.58,1.42-2.21,2.1-3.63,1.52l-41.1-16.84c-1.42-0.58-2.1-2.21-1.52-3.63l7.9-19.29c0.58-1.42,2.21-2.1,3.63-1.52l41.1,16.84
				C227.9,28.63,228.59,30.25,228,31.67z"/>
		</g>
	</g>
	<g>
		<polygon class="st2" points="224.9,84.02 255.1,10.31 229.93,0 225.38,0 252.84,11.25 223.95,81.77 149.62,51.31 170.64,0 
			168.78,0 147.37,52.25 		"/>
	</g>
	<g>
		<g>
			<g>
				<path class="st2" d="M239.18,16.24l6.84,2.8l2.32-5.65l-6.84-2.8L239.18,16.24z M246.08,14.34l-1.01,2.46l-3.64-1.49l1.01-2.46
					L246.08,14.34z"/>
			</g>
		</g>
		<g>
			<g>
				<polygon class="st2" points="180.42,3.51 181.86,0 180,0 179.48,1.26 176.4,0 173.88,0 173.59,0.71 				"/>
			</g>
		</g>
		<g>
			<g>
				<path class="st2" d="M235.2,25.96l6.84,2.8l2.32-5.65l-6.84-2.8L235.2,25.96z M242.1,24.05l-1.01,2.46l-3.64-1.49l1.01-2.46
					L242.1,24.05z"/>
			</g>
		</g>
	</g>
	<g>
		<g>
			<g>
				<path class="st2" d="M169.62,10.41l6.84,2.8l2.32-5.65l-6.84-2.8L169.62,10.41z M176.52,8.5l-1.01,2.46l-3.64-1.49l1.01-2.46
					L176.52,8.5z"/>
			</g>
		</g>
		<g>
			<g>
				<path class="st2" d="M231.22,35.65l6.84,2.8l2.31-5.65l-6.84-2.8L231.22,35.65z M238.13,33.75l-1.01,2.46l-3.64-1.49l1.01-2.46
					L238.13,33.75z"/>
			</g>
		</g>
		<g>
			<g>
				<path class="st2" d="M165.64,20.12l6.84,2.8l2.32-5.65l-6.84-2.8L165.64,20.12z M172.54,18.22l-1.01,2.46l-3.64-1.49l1.01-2.46
					L172.54,18.22z"/>
			</g>
		</g>
		<g>
			<g>
				<path class="st2" d="M227.24,45.36l6.84,2.8l2.32-5.65l-6.84-2.8L227.24,45.36z M234.15,43.46l-1.01,2.46l-3.64-1.49l1.01-2.46
					L234.15,43.46z"/>
			</g>
		</g>
	</g>
	<g>
		<g>
			<g>
				<path class="st2" d="M161.64,29.88l6.84,2.8l2.32-5.65l-6.84-2.8L161.64,29.88z M168.54,27.97l-1.01,2.46l-3.64-1.49l1.01-2.46
					L168.54,27.97z"/>
			</g>
		</g>
		<g>
			<g>
				<path class="st2" d="M223.25,55.12l6.84,2.8l2.32-5.65l-6.84-2.8L223.25,55.12z M230.15,53.22l-1.01,2.46l-3.64-1.49l1.01-2.46
					L230.15,53.22z"/>
			</g>
		</g>
		<g>
			<g>
				<path class="st2" d="M157.66,39.59l6.84,2.8l2.32-5.65l-6.84-2.8L157.66,39.59z M164.56,37.69l-1.01,2.46l-3.64-1.49l1.01-2.46
					L164.56,37.69z"/>
			</g>
		</g>
		<g>
			<g>
				<path class="st2" d="M219.27,64.84l6.84,2.8l2.32-5.65l-6.84-2.8L219.27,64.84z M226.17,62.93l-1.01,2.46l-3.64-1.49l1.01-2.46
					L226.17,62.93z"/>
			</g>
		</g>
		<g>
			<g>
				<path class="st2" d="M153.68,49.31l6.84,2.8l2.32-5.65l-6.84-2.8L153.68,49.31z M160.58,47.4l-1.01,2.46l-3.64-1.49l1.01-2.46
					L160.58,47.4z"/>
			</g>
		</g>
		<g>
			<g>
				<path class="st2" d="M215.28,74.55l6.84,2.8l2.32-5.65l-6.84-2.8L215.28,74.55z M222.19,72.65l-1.01,2.46l-3.64-1.49l1.01-2.46
					L222.19,72.65z"/>
			</g>
		</g>
	</g>
</g>
<g class="st1">
	<g>
		<g>
			<g>
				<polygon class="st2" points="25.03,391.09 31.81,429.11 33.63,428.79 27.18,392.59 30.31,392.03 36.76,428.23 38.58,427.9 
					31.81,389.88 				"/>
			</g>
			<g>
				<polygon class="st2" points="14.84,436.52 13.02,436.85 13.24,438.06 17.86,450 19.83,450 15.04,437.65 				"/>
				<polygon class="st2" points="58.87,428.68 57.06,429 57.26,430.13 56.92,450 58.78,450 59.12,430.07 				"/>
			</g>
		</g>
		<g>
			<path class="st2" d="M10.62,431.8l1.19,6.68l48.77-8.69l-1.19-6.68L10.62,431.8z M13.31,436.34l-0.54-3.04l45.13-8.04l0.54,3.04
				L13.31,436.34z"/>
		</g>
	</g>
	<g>
		<g>
			<path class="st2" d="M57.89,429.78c-0.18-0.65-0.44-0.81-0.87-0.89L25.42,450h3.33l29.27-19.56
				C57.99,430.22,57.95,430,57.89,429.78z"/>
		</g>
	</g>
	<g>
		<g>
			<path class="st2" d="M58.08,443.99c-0.01-0.56-0.01-1.11,0.01-1.67L46.57,450h3.34l8.05-5.37
				C57.98,444.41,58.02,444.2,58.08,443.99z"/>
		</g>
	</g>
</g>
<g class="st1">
	<g>
		<g>
			<g>
				<g>
					<path class="st2" d="M366.88,431.56l3.35,0.18c0.01-0.06,0.01-0.11,0.02-0.17c0.1-0.59,0.26-1.14,0.51-1.66l-4.18-0.22
						C366.72,430.3,366.81,430.93,366.88,431.56z"/>
				</g>
				<g>
					<path class="st2" d="M371.63,440.5c-0.76-1.17-1.32-2.31-1.62-3.5l-0.7,13h1.85l0.51-9.45
						C371.66,440.53,371.64,440.52,371.63,440.5z"/>
				</g>
				<g>
					<path class="st2" d="M364.26,440.08l-0.53,9.92h1.85l0.73-13.63C365.86,437.68,365.11,438.94,364.26,440.08z"/>
				</g>
			</g>
		</g>
		<g>
			<g>
				<path class="st2" d="M351.8,415.42c-9.24-0.5-17.13,6.59-17.62,15.83c-0.5,9.24,6.59,17.13,15.83,17.62
					c9.24,0.5,17.13-6.59,17.62-15.83C368.12,423.81,361.03,415.92,351.8,415.42z M365.78,432.94c-0.44,8.2-7.47,14.52-15.67,14.08
					c-8.2-0.44-14.52-7.47-14.08-15.67c0.44-8.2,7.47-14.52,15.67-14.08C359.9,417.71,366.22,424.74,365.78,432.94z"/>
			</g>
		</g>
		<g>
			<g>
				<path class="st2" d="M351.49,421.13c-6.07-0.33-11.28,4.35-11.61,10.42c-0.33,6.07,4.35,11.28,10.42,11.61
					c6.07,0.33,11.28-4.35,11.61-10.42C362.24,426.66,357.57,421.45,351.49,421.13z M360.07,432.64c-0.27,5.05-4.6,8.95-9.66,8.68
					c-5.05-0.27-8.95-4.6-8.67-9.66c0.27-5.05,4.6-8.95,9.66-8.67C356.45,423.25,360.34,427.58,360.07,432.64z"/>
			</g>
		</g>
		<g>
			<g>
				<path class="st2" d="M402.71,435.54c0.5-9.24-6.59-17.13-15.83-17.62c-9.24-0.5-17.13,6.59-17.62,15.83
					c-0.39,7.19,3.83,13.55,10.08,16.25h13.29C398.27,447.55,402.36,442.1,402.71,435.54z M385.19,449.52
					c-8.2-0.44-14.52-7.47-14.08-15.67c0.44-8.2,7.47-14.52,15.67-14.08c8.2,0.44,14.52,7.47,14.08,15.67
					C400.42,443.64,393.39,449.96,385.19,449.52z"/>
			</g>
		</g>
		<g>
			<g>
				<path class="st2" d="M386.58,423.63c-6.07-0.33-11.28,4.35-11.61,10.42c-0.33,6.07,4.35,11.28,10.42,11.61
					c6.07,0.33,11.28-4.35,11.61-10.42C397.33,429.16,392.65,423.95,386.58,423.63z M395.15,435.14c-0.27,5.05-4.6,8.95-9.66,8.67
					c-5.05-0.27-8.95-4.6-8.68-9.66c0.27-5.05,4.6-8.95,9.66-8.67C391.53,425.75,395.42,430.08,395.15,435.14z"/>
			</g>
		</g>
	</g>
	<g>
		<g>
			<path class="st2" d="M342.21,445.7c-0.44-0.21-0.87-0.43-1.28-0.67l3.59,4.97h2.28l-2.56-3.54
				C343.43,446.22,342.68,445.92,342.21,445.7z"/>
		</g>
	</g>
	<g>
		<g>
			<path class="st2" d="M397.37,445.86c-0.61,0.13-1.22,0.28-1.83,0.44l-2.46,3.69h2.22l2.54-3.82L397.37,445.86z"/>
		</g>
	</g>
</g>
<g class="st1">
	<g>
		<g>
			<path class="st2" d="M217.15,444.71l-25.6-10.44l-4,9.76c-0.94,2.3,0.16,4.94,2.46,5.88l0.24,0.1h4.55l-4.13-1.69
				c-1.42-0.58-2.1-2.21-1.52-3.63l3.34-8.16l22.41,9.13l-0.03,0.07l10.46,4.28h4.56l-12.77-5.22L217.15,444.71z"/>
		</g>
	</g>
	<g>
		<polygon class="st2" points="168.78,450 170.64,450 178.51,430.8 225.38,450 229.93,450 177.57,428.55 		"/>
	</g>
	<g>
		<g>
			<g>
				<path class="st2" d="M177.57,441l6.84,2.8l2.32-5.65l-6.84-2.8L177.57,441z M184.47,439.09l-1.01,2.46l-3.64-1.49l1.01-2.46
					L184.47,439.09z"/>
			</g>
		</g>
		<g>
			<g>
				<polygon class="st2" points="175.9,445.06 173.88,450 176.4,450 175.84,449.77 176.85,447.31 180.49,448.81 180,450 181.86,450 
					182.74,447.86 				"/>
			</g>
		</g>
	</g>
</g>
<g class="st1">
	<g>
		<g>
			<g>
				<g>
					<path class="st2" d="M160.08,404.68c-6.89-20.29-29-31.2-49.29-24.31c-20.29,6.89-31.2,29-24.31,49.29
						c2.97,8.75,8.78,15.75,16.04,20.34h3.98c-8.26-4.22-14.95-11.52-18.16-20.97c-6.54-19.26,3.81-40.26,23.08-46.8
						c19.26-6.54,40.26,3.81,46.8,23.08c5.95,17.53-2.09,36.49-18.1,44.69h3.96C158.87,440.62,165.95,421.99,160.08,404.68z"/>
				</g>
				<g>
					<g>
						<g>
							<path class="st2" d="M113.37,388c-16.08,5.46-24.73,22.99-19.27,39.07c5.46,16.08,22.99,24.73,39.07,19.27
								c16.08-5.46,24.73-22.99,19.27-39.07C146.98,391.19,129.46,382.54,113.37,388z M132.54,444.47
								c-15.06,5.11-31.46-2.98-36.57-18.04c-5.11-15.05,2.98-31.46,18.04-36.57c15.06-5.11,31.46,2.98,36.57,18.04
								C155.69,422.96,147.6,439.36,132.54,444.47z"/>
							<path class="st2" d="M124.01,390.19c-2.72,0.92-4.86,3.11-5.73,5.86c-0.28,0.89-0.42,1.8-0.42,2.72c0,1,0.16,1.98,0.48,2.93
								c1.61,4.74,6.77,7.28,11.51,5.68c2.48-0.84,4.47-2.71,5.47-5.14c0.35-0.84,0.56-1.74,0.65-2.67c0.11-1.27-0.04-2.51-0.44-3.7
								C133.91,391.13,128.75,388.58,124.01,390.19z M134,399.39c-0.06,0.74-0.23,1.44-0.5,2.1c-0.78,1.9-2.34,3.36-4.28,4.02
								c-3.71,1.26-7.75-0.73-9.01-4.44c-0.25-0.74-0.38-1.51-0.38-2.29c0-0.72,0.11-1.44,0.33-2.13c0.68-2.15,2.36-3.87,4.49-4.59
								c3.71-1.26,7.75,0.73,9.01,4.44C133.97,397.43,134.08,398.4,134,399.39z"/>
							<path class="st2" d="M121.44,411.95c-2.86,0.97-4.4,4.09-3.43,6.95c0.97,2.86,4.09,4.4,6.95,3.43
								c2.86-0.97,4.4-4.09,3.43-6.95C127.42,412.51,124.3,410.97,121.44,411.95z M124.33,420.46c-1.83,0.62-3.83-0.36-4.45-2.19
								c-0.62-1.83,0.36-3.83,2.2-4.45c1.83-0.62,3.83,0.36,4.45,2.2C127.14,417.84,126.16,419.83,124.33,420.46z"/>
							<path class="st2" d="M116.12,399.39c-0.55-0.73-1.22-1.37-1.98-1.9c-2.37-1.67-5.41-2.11-8.15-1.18
								c-4.74,1.61-7.28,6.77-5.68,11.51c0.44,1.28,1.14,2.43,2.09,3.41c0.65,0.67,1.39,1.23,2.18,1.66
								c2.21,1.2,4.85,1.42,7.23,0.61c4.74-1.61,7.28-6.77,5.68-11.51C117.19,401.05,116.72,400.18,116.12,399.39z M111.2,411.63
								c-1.89,0.64-3.9,0.47-5.66-0.48c-0.62-0.33-1.2-0.77-1.71-1.3c-0.75-0.77-1.3-1.66-1.64-2.67c-1.26-3.71,0.73-7.75,4.44-9.01
								c2.14-0.73,4.53-0.38,6.38,0.93c0.59,0.42,1.11,0.92,1.55,1.49c0.47,0.62,0.83,1.3,1.08,2.03
								C116.9,406.32,114.91,410.37,111.2,411.63z"/>
							<path class="st2" d="M139,402.23c-0.87,0.22-1.74,0.57-2.53,1.05c-3.61,2.19-5.24,6.67-3.89,10.67
								c1.37,4.03,5.42,6.59,9.64,6.1c0.64-0.08,1.27-0.22,1.87-0.42c0.26-0.09,0.52-0.19,0.76-0.3c4.32-1.91,6.43-6.73,4.91-11.21
								C148.27,403.69,143.53,401.1,139,402.23z M144.06,417.52c-0.64,0.28-1.35,0.48-2.06,0.57c-3.3,0.39-6.48-1.62-7.55-4.77
								c-1.06-3.13,0.22-6.65,3.04-8.36c0.45-0.27,0.92-0.49,1.4-0.65c0.19-0.07,0.39-0.12,0.58-0.16c3.55-0.88,7.26,1.14,8.43,4.61
								C149.09,412.25,147.44,416.02,144.06,417.52z"/>
							<path class="st2" d="M144.08,423.38c-0.63-0.7-1.35-1.29-2.14-1.76c-2.28-1.35-5.03-1.64-7.54-0.78
								c-4.74,1.61-7.28,6.77-5.68,11.51c0.34,0.99,0.84,1.91,1.48,2.72c0.57,0.72,1.26,1.36,2.03,1.88
								c2.37,1.6,5.28,1.99,7.99,1.07c4.74-1.61,7.28-6.77,5.68-11.51C145.53,425.35,144.91,424.3,144.08,423.38z M139.61,436.15
								c-2.12,0.72-4.4,0.41-6.26-0.84c-0.61-0.41-1.14-0.91-1.59-1.47c-0.51-0.64-0.9-1.36-1.16-2.13
								c-1.26-3.71,0.73-7.75,4.44-9.01c1.96-0.67,4.11-0.44,5.9,0.62c0.61,0.36,1.18,0.83,1.67,1.38c0.65,0.72,1.13,1.54,1.44,2.45
								C145.31,430.85,143.32,434.89,139.61,436.15z"/>
							<path class="st2" d="M104.35,414.18c-0.92,0.1-1.82,0.35-2.64,0.71c-4.28,1.87-6.46,6.8-4.96,11.23
								c1.52,4.48,6.13,7.01,10.72,5.9c0.26-0.06,0.53-0.14,0.79-0.22c0.6-0.2,1.19-0.48,1.74-0.8c3.65-2.18,5.3-6.68,3.94-10.7
								C112.57,416.28,108.54,413.71,104.35,414.18z M108.98,429.29c-0.62,0.37-1.3,0.64-1.99,0.81c-3.59,0.87-7.2-1.12-8.39-4.62
								c-1.18-3.47,0.53-7.33,3.88-8.79c0.18-0.08,0.37-0.16,0.56-0.22c0.48-0.16,0.99-0.28,1.51-0.33c3.28-0.36,6.44,1.65,7.5,4.78
								C113.13,424.07,111.84,427.59,108.98,429.29z"/>
							<path class="st2" d="M116.4,426.95c-2.41,0.82-4.38,2.63-5.4,4.96c-0.36,0.83-0.6,1.73-0.7,2.66c-0.14,1.33,0,2.64,0.42,3.89
								c1.61,4.74,6.77,7.28,11.51,5.68c2.72-0.92,4.8-3.02,5.7-5.76c0.29-0.88,0.44-1.8,0.45-2.72c0.01-1.03-0.15-2.05-0.48-3.03
								C126.3,427.88,121.13,425.34,116.4,426.95z M126.06,437.76c-0.71,2.14-2.33,3.79-4.47,4.51c-3.71,1.26-7.75-0.73-9.01-4.44
								c-0.33-0.98-0.44-2-0.33-3.04c0.08-0.74,0.26-1.44,0.55-2.09c0.8-1.83,2.34-3.24,4.23-3.88c3.71-1.26,7.75,0.73,9.01,4.44
								c0.26,0.77,0.39,1.57,0.38,2.37C126.41,436.35,126.29,437.07,126.06,437.76z"/>
						</g>
					</g>
				</g>
			</g>
		</g>
	</g>
</g>
<g class="st1">
	<g>
		<g>
			<g>
				<g>
					<path class="st2" d="M145.17,124.31c-20.29,6.89-31.2,29-24.31,49.29c6.89,20.29,29,31.2,49.29,24.31
						c20.29-6.89,31.2-29,24.31-49.29C187.57,128.32,165.46,117.42,145.17,124.31z M169.52,196.05
						c-19.26,6.54-40.26-3.81-46.8-23.08c-6.54-19.26,3.81-40.26,23.08-46.8c19.26-6.54,40.26,3.81,46.8,23.08
						C199.13,168.51,188.78,189.51,169.52,196.05z"/>
				</g>
				<g>
					<g>
						<g>
							<path class="st2" d="M155.82,155.88c-2.86,0.97-4.4,4.09-3.43,6.95c0.97,2.86,4.09,4.4,6.95,3.43
								c2.86-0.97,4.4-4.09,3.43-6.95C161.8,156.45,158.68,154.91,155.82,155.88z M158.71,164.39c-1.83,0.62-3.83-0.36-4.45-2.19
								c-0.62-1.83,0.36-3.83,2.2-4.45c1.83-0.62,3.83,0.36,4.45,2.2C161.53,161.78,160.54,163.77,158.71,164.39z"/>
							<path class="st2" d="M158.39,134.13c-2.72,0.92-4.86,3.11-5.73,5.86c-0.28,0.89-0.42,1.8-0.42,2.72c0,1,0.16,1.98,0.48,2.93
								c1.61,4.74,6.77,7.28,11.51,5.68c2.48-0.84,4.47-2.71,5.47-5.14c0.35-0.84,0.56-1.74,0.64-2.67c0.11-1.27-0.04-2.51-0.44-3.7
								C168.29,135.07,163.13,132.52,158.39,134.13z M168.38,143.33c-0.06,0.74-0.23,1.44-0.5,2.1c-0.78,1.9-2.34,3.36-4.28,4.02
								c-3.71,1.26-7.75-0.73-9.01-4.44c-0.25-0.74-0.38-1.51-0.38-2.29c0-0.72,0.11-1.44,0.33-2.13c0.68-2.15,2.36-3.87,4.49-4.59
								c3.71-1.26,7.75,0.73,9.01,4.44C168.35,141.36,168.47,142.34,168.38,143.33z"/>
							<path class="st2" d="M178.46,167.31c-0.63-0.7-1.35-1.29-2.14-1.76c-2.28-1.35-5.03-1.64-7.54-0.78
								c-4.74,1.61-7.28,6.77-5.68,11.51c0.34,0.99,0.84,1.91,1.48,2.72c0.57,0.72,1.26,1.36,2.03,1.88
								c2.37,1.6,5.28,1.99,7.99,1.07c4.74-1.61,7.28-6.77,5.68-11.51C179.91,169.29,179.29,168.23,178.46,167.31z M173.99,180.09
								c-2.12,0.72-4.4,0.41-6.26-0.84c-0.61-0.41-1.14-0.91-1.59-1.47c-0.51-0.64-0.9-1.36-1.16-2.13
								c-1.26-3.71,0.73-7.75,4.44-9.01c1.96-0.67,4.11-0.44,5.9,0.62c0.61,0.36,1.18,0.83,1.67,1.38c0.65,0.72,1.13,1.54,1.44,2.45
								C179.7,174.79,177.7,178.83,173.99,180.09z"/>
							<path class="st2" d="M147.76,131.94c-16.08,5.46-24.73,22.99-19.27,39.07c5.46,16.08,22.99,24.73,39.07,19.27
								c16.08-5.46,24.73-22.99,19.27-39.07C181.37,135.12,163.84,126.48,147.76,131.94z M166.92,188.41
								c-15.05,5.11-31.46-2.98-36.57-18.04c-5.11-15.05,2.98-31.46,18.04-36.57c15.06-5.11,31.46,2.98,36.57,18.04
								C190.07,166.9,181.98,183.3,166.92,188.41z"/>
							<path class="st2" d="M150.51,143.33c-0.55-0.73-1.22-1.37-1.98-1.9c-2.37-1.67-5.41-2.11-8.15-1.18
								c-4.74,1.61-7.28,6.77-5.68,11.51c0.44,1.28,1.14,2.43,2.09,3.41c0.65,0.67,1.39,1.23,2.18,1.66
								c2.21,1.2,4.85,1.42,7.23,0.61c4.74-1.61,7.28-6.77,5.68-11.51C151.57,144.99,151.11,144.11,150.51,143.33z M145.58,155.56
								c-1.89,0.64-3.9,0.47-5.66-0.48c-0.62-0.33-1.2-0.77-1.71-1.3c-0.75-0.77-1.3-1.66-1.64-2.67c-1.26-3.71,0.73-7.75,4.44-9.01
								c2.14-0.73,4.53-0.38,6.38,0.93c0.59,0.42,1.11,0.92,1.55,1.49c0.47,0.62,0.83,1.3,1.08,2.03
								C151.28,150.26,149.29,154.3,145.58,155.56z"/>
							<path class="st2" d="M138.73,158.12c-0.92,0.1-1.82,0.35-2.64,0.71c-4.28,1.87-6.46,6.8-4.96,11.23
								c1.52,4.48,6.13,7.01,10.72,5.9c0.26-0.06,0.53-0.14,0.79-0.22c0.6-0.2,1.19-0.48,1.74-0.8c3.65-2.18,5.3-6.68,3.94-10.7
								C146.95,160.22,142.92,157.65,138.73,158.12z M143.37,173.23c-0.62,0.37-1.3,0.64-1.99,0.81c-3.59,0.87-7.2-1.12-8.39-4.62
								c-1.18-3.47,0.53-7.33,3.88-8.79c0.18-0.08,0.37-0.16,0.56-0.22c0.48-0.16,0.99-0.28,1.51-0.33c3.28-0.36,6.44,1.65,7.5,4.78
								C147.52,168,146.22,171.53,143.37,173.23z"/>
							<path class="st2" d="M150.78,170.88c-2.41,0.82-4.38,2.63-5.4,4.96c-0.36,0.83-0.6,1.73-0.7,2.66
								c-0.14,1.33,0,2.64,0.42,3.89c1.61,4.74,6.77,7.28,11.51,5.68c2.72-0.92,4.8-3.02,5.7-5.76c0.29-0.88,0.44-1.8,0.45-2.72
								c0.01-1.03-0.15-2.05-0.48-3.03C160.68,171.82,155.52,169.27,150.78,170.88z M160.44,181.69c-0.71,2.14-2.33,3.79-4.47,4.51
								c-3.71,1.26-7.75-0.73-9.01-4.44c-0.33-0.98-0.44-2-0.33-3.04c0.08-0.74,0.26-1.44,0.55-2.09c0.8-1.83,2.34-3.24,4.23-3.88
								c3.71-1.26,7.75,0.73,9.01,4.44c0.26,0.77,0.39,1.57,0.38,2.37C160.79,180.29,160.67,181,160.44,181.69z"/>
							<path class="st2" d="M173.38,146.17c-0.87,0.22-1.74,0.57-2.53,1.04c-3.61,2.19-5.24,6.67-3.89,10.67
								c1.37,4.03,5.42,6.59,9.64,6.1c0.64-0.08,1.27-0.22,1.87-0.42c0.26-0.09,0.52-0.19,0.76-0.3c4.32-1.91,6.43-6.73,4.91-11.21
								C182.65,147.63,177.92,145.04,173.38,146.17z M178.44,161.46c-0.64,0.28-1.35,0.48-2.06,0.57c-3.3,0.39-6.48-1.62-7.55-4.77
								c-1.06-3.13,0.22-6.65,3.04-8.36c0.45-0.27,0.92-0.49,1.4-0.65c0.19-0.07,0.39-0.12,0.58-0.16c3.55-0.88,7.26,1.14,8.43,4.61
								C183.48,156.19,181.82,159.96,178.44,161.46z"/>
						</g>
					</g>
				</g>
			</g>
		</g>
	</g>
</g>
<g class="st1">
	<g>
		<g>
			<g>
				<g>
					<path class="st2" d="M135.77,3.97c2.98-1.01,5.75-2.36,8.3-3.97h-3.96c-1.58,0.81-3.24,1.52-4.98,2.11
						c-9.81,3.33-20.07,2.27-28.64-2.11h-3.98C112.1,6.05,124.23,7.89,135.77,3.97z"/>
				</g>
			</g>
		</g>
	</g>
</g>
</svg>
