<?xml version="1.0" encoding="utf-8"?>
<!-- Generator: Adobe Illustrator 24.0.2, SVG Export Plug-In . SVG Version: 6.00 Build 0)  -->
<svg version="1.1" id="Layer_1" xmlns="http://www.w3.org/2000/svg" xmlns:xlink="http://www.w3.org/1999/xlink" x="0px" y="0px"
	 viewBox="0 0 71.6 20.4" style="enable-background:new 0 0 71.6 20.4;" xml:space="preserve">
<style type="text/css">
	.st0{fill:#FFFFFF;}
</style>
<g>
	<path class="st0" d="M1,6.5v13.1c0,0.4,0.4,0.8,0.8,0.8h19.2c0.4,0,0.8-0.4,0.8-0.8V6.5H1z M13.9,6.9h2.2l-2.3,2.9h-2.2L13.9,6.9z
		 M11.3,10.7h2.8V14c-0.9,0.1-1.9,0.2-2.8,0.4V10.7z M9.1,6.9h2.2L9.1,9.8H6.9L9.1,6.9z M6.8,10.7h2.8v4c0,0-0.1,0-0.1,0
		c-0.9,0.2-1.8,0.4-2.7,0.7V10.7z M4.3,9.8H2.1l2.3-2.9h2.2L4.3,9.8z M9.6,18.7H6.8V18c0.9-0.4,1.9-0.8,2.8-1.1V18.7z M14.2,18.7
		h-2.8v-2.4c0.9-0.3,1.9-0.6,2.8-0.9V18.7z M11.3,16.1c-0.4,0.1-0.8,0.3-1.2,0.4c-0.2,0.1-0.4,0.1-0.5,0.2c-1,0.4-1.9,0.7-2.8,1.1
		c0,0-0.1,0-0.1,0v-2.3c0,0,0.1,0,0.1,0c0.9-0.2,1.8-0.5,2.7-0.7c0,0,0.1,0,0.1,0c0.6-0.1,1.2-0.2,1.7-0.3c1-0.2,1.9-0.3,2.8-0.4
		c0.5-0.1,0.9-0.1,1.4-0.1c-0.1,0.3-0.1,0.6,0.1,0.8c-0.5,0.1-1,0.3-1.5,0.4C13.2,15.5,12.3,15.8,11.3,16.1z M17.6,14.4
		c0,0,0,0.1-0.1,0.1c-0.1,0.1-0.3,0.3-0.8,0.3c-0.1,0-0.3,0-0.4,0c0,0.1-0.1,0.3-0.2,0.3c-0.2,0.1-0.4-0.1-0.4-0.1
		c0,0,0.1-0.1,0.2-0.1c0,0,0,0,0,0c0,0,0,0,0,0c0,0,0,0,0,0c0,0,0,0,0,0c0,0,0,0,0,0c0,0,0,0,0,0c0,0,0,0,0,0c0,0,0,0,0,0
		c0,0,0,0,0,0c0,0,0,0,0,0c0,0,0,0,0,0c0,0,0,0,0,0c0,0,0,0,0,0c0,0,0,0,0,0c0,0,0,0,0,0c0,0,0,0,0,0c0,0,0,0,0,0c0,0,0,0,0,0
		c0,0,0,0,0,0c-0.1-0.2-0.1-0.5-0.1-0.7c0,0,0,0,0,0c0-0.1,0.1-0.1,0.1-0.1c0,0,0,0,0,0c0,0,0,0,0,0c0,0,0,0,0,0c0,0,0,0,0,0
		c0,0,0,0,0,0c0,0,0,0,0,0c0,0,0,0,0,0c0,0,0,0-0.1-0.1c-0.1-0.1-0.1-0.1-0.2-0.1c0.1-0.1,0.3-0.2,0.4-0.1c0.2,0.1,0.2,0.2,0.2,0.3
		c0.2,0,0.4,0,0.5,0c0.6,0,0.8,0.2,0.9,0.2c0,0,0.1,0.1,0.1,0.2C17.6,14.3,17.6,14.3,17.6,14.4z M18.6,9.8h-2.2l2.3-2.9h2.2
		L18.6,9.8z"/>
	<path class="st0" d="M21,0L0.5,3.3L1,6.4l20.5-3.3L21,0z M5.1,5.4L2.8,3.2l1.9-0.3L7,5.1L5.1,5.4z M9.3,4.8L6.9,2.6l1.9-0.3
		l2.4,2.2L9.3,4.8z M13.4,4.1l-2.4-2.2L13,1.6l2.4,2.2L13.4,4.1z M17.6,3.4l-2.4-2.2l1.9-0.3l2.4,2.2L17.6,3.4z"/>
</g>
<g>
	<path class="st0" d="M25.9,11V1h3.6v3.3h2.2V1h3.6v10h-3.6V7.5h-2.2V11H25.9z"/>
	<path class="st0" d="M45,8.1h-4.9v0.1c0,0.3,0.1,0.6,0.2,0.8c0.1,0.2,0.3,0.3,0.6,0.3c0.2,0,0.3,0,0.4-0.1c0.1-0.1,0.2-0.2,0.3-0.4
		l3.2,0.2c-0.3,0.8-0.8,1.4-1.4,1.8c-0.7,0.4-1.5,0.6-2.5,0.6c-0.5,0-1.1-0.1-1.5-0.3c-0.5-0.2-0.9-0.4-1.3-0.7
		c-0.4-0.4-0.8-0.8-1-1.3c-0.2-0.5-0.3-1-0.3-1.5C36.7,7,36.8,6.5,37,6c0.1-0.2,0.2-0.5,0.4-0.7s0.3-0.4,0.6-0.6
		c0.4-0.3,0.8-0.6,1.3-0.7c0.5-0.2,1-0.3,1.5-0.3c0.4,0,0.7,0,1.1,0.1s0.7,0.2,1,0.3c0.6,0.3,1.1,0.7,1.5,1.3c0.2,0.3,0.4,0.6,0.5,1
		C44.9,6.8,45,7.2,45,7.7v0.2C45,8,45,8,45,8.1z M40.1,6.5l1.6,0c0-0.3-0.1-0.5-0.2-0.6c-0.1-0.1-0.3-0.2-0.6-0.2
		c-0.2,0-0.4,0.1-0.5,0.2C40.2,6.1,40.2,6.3,40.1,6.5z"/>
	<path class="st0" d="M46,11V4h3.3v1c0.3-0.4,0.6-0.7,1-0.9c0.4-0.2,0.8-0.3,1.2-0.3c0.8,0,1.4,0.2,1.8,0.7C53.8,4.9,54,5.5,54,6.3
		V11h-3.4V7.5c0-0.3,0-0.6-0.1-0.7c-0.1-0.1-0.2-0.2-0.4-0.2c-0.2,0-0.4,0.1-0.5,0.2c-0.1,0.2-0.2,0.4-0.2,0.7V11H46z"/>
	<path class="st0" d="M55.4,11V4h3.3v1c0.3-0.4,0.6-0.7,1-0.9c0.4-0.2,0.8-0.3,1.2-0.3h0.2c0,0,0.1,0,0.1,0v3.4
		C61,7.1,60.9,7,60.7,6.9c-0.2,0-0.3-0.1-0.4-0.1c-0.4,0-0.8,0.1-1,0.4c-0.2,0.2-0.4,0.6-0.4,1V11H55.4z"/>
	<path class="st0" d="M64.3,10.4L61.3,4H65l0.5,1.8c0,0,0,0,0,0c0,0,0,0,0,0C65.8,6.7,66,7.4,66,7.7c0-0.2,0.1-0.3,0.1-0.5
		c0-0.1,0.1-0.3,0.1-0.4s0.1-0.3,0.1-0.4c0-0.2,0.1-0.4,0.2-0.7L67,4h3.5l-4.3,10h-3.7L64.3,10.4z"/>
	<path class="st0" d="M30.1,19.6l-0.2-2c0-0.1,0-0.2,0-0.2s0-0.2,0-0.2c0-0.2,0-0.3,0-0.5c0,0.2-0.1,0.3-0.1,0.5
		c0,0.1-0.1,0.3-0.1,0.5l-0.6,2h-1.1l-0.6-2c-0.1-0.2-0.1-0.4-0.1-0.5c0-0.2-0.1-0.4-0.1-0.5c0,0.2,0,0.4,0,0.5c0,0.1,0,0.3,0,0.5
		l-0.2,2H25l0.9-5.1h1.9l0.4,1.3c0,0,0,0.1,0.1,0.2c0.2,0.6,0.2,1,0.3,1.3h0c0-0.2,0.1-0.4,0.1-0.7c0-0.2,0.1-0.5,0.2-0.8l0.4-1.2
		h1.9l0.8,5.1H30.1z"/>
	<path class="st0" d="M36.4,17.8c0,0.3-0.1,0.5-0.2,0.8c-0.1,0.2-0.3,0.5-0.5,0.7c-0.2,0.2-0.4,0.3-0.6,0.4
		c-0.2,0.1-0.5,0.1-0.8,0.1c-0.3,0-0.5,0-0.8-0.1c-0.2-0.1-0.5-0.2-0.6-0.4c-0.2-0.2-0.4-0.4-0.5-0.7c-0.1-0.2-0.2-0.5-0.2-0.8
		c0-0.3,0.1-0.5,0.2-0.8c0.1-0.1,0.1-0.2,0.2-0.3c0.1-0.1,0.2-0.2,0.3-0.3c0.2-0.2,0.4-0.3,0.6-0.4c0.2-0.1,0.5-0.1,0.8-0.1
		c0.3,0,0.5,0,0.8,0.1c0.2,0.1,0.5,0.2,0.6,0.4c0.2,0.2,0.4,0.4,0.5,0.6C36.3,17.3,36.4,17.5,36.4,17.8z M34.3,18.3
		c0.1,0,0.2,0,0.3-0.1c0.1-0.1,0.1-0.2,0.1-0.4c0-0.1,0-0.3-0.1-0.4c-0.1-0.1-0.2-0.1-0.3-0.1c-0.1,0-0.2,0-0.3,0.1
		c-0.1,0.1-0.1,0.2-0.1,0.4c0,0.1,0,0.3,0.1,0.4C34,18.2,34.1,18.3,34.3,18.3z"/>
	<path class="st0" d="M37.9,19.6L36.4,16h1.9l0.4,1.2c0,0.1,0.1,0.2,0.1,0.3c0,0.1,0,0.2,0,0.2c0-0.1,0-0.2,0.1-0.5c0,0,0,0,0,0
		s0,0,0,0l0.4-1.2h1.9l-1.6,3.6H37.9z"/>
	<path class="st0" d="M41.3,19.6V16H43v3.6H41.3z M42.6,15.1c0,0.1,0,0.2-0.1,0.3c-0.1,0.1-0.2,0.1-0.3,0.1c-0.1,0-0.3,0-0.4-0.1
		c-0.1-0.1-0.1-0.2-0.1-0.3c0-0.1,0-0.2,0.1-0.3c0.1-0.1,0.2-0.1,0.4-0.1c0.2,0,0.3,0,0.3,0.1C42.6,14.9,42.6,15,42.6,15.1z"/>
	<path class="st0" d="M47.9,18.1h-2.5v0.1c0,0.2,0,0.3,0.1,0.4c0.1,0.1,0.2,0.1,0.3,0.1c0.1,0,0.2,0,0.2-0.1c0.1,0,0.1-0.1,0.1-0.2
		l1.6,0.1c-0.1,0.4-0.4,0.7-0.7,0.9c-0.3,0.2-0.8,0.3-1.3,0.3c-0.3,0-0.5,0-0.8-0.1c-0.3-0.1-0.5-0.2-0.7-0.4
		c-0.2-0.2-0.4-0.4-0.5-0.7c-0.1-0.3-0.2-0.5-0.2-0.8c0-0.3,0.1-0.5,0.2-0.8c0.1-0.1,0.1-0.2,0.2-0.3c0.1-0.1,0.2-0.2,0.3-0.3
		c0.2-0.2,0.4-0.3,0.6-0.4c0.2-0.1,0.5-0.1,0.8-0.1c0.2,0,0.4,0,0.5,0.1c0.2,0,0.3,0.1,0.5,0.2c0.3,0.2,0.5,0.4,0.8,0.7
		c0.1,0.2,0.2,0.3,0.2,0.5c0.1,0.2,0.1,0.4,0.1,0.6L47.9,18.1C47.9,18,47.9,18.1,47.9,18.1z M45.4,17.3l0.8,0c0-0.1,0-0.3-0.1-0.3
		c-0.1-0.1-0.2-0.1-0.3-0.1c-0.1,0-0.2,0-0.3,0.1C45.5,17.1,45.4,17.2,45.4,17.3z"/>
	<path class="st0" d="M48,19.3l0.5-1.1c0.2,0.1,0.4,0.2,0.5,0.3c0.2,0.1,0.3,0.1,0.4,0.1c0.1,0,0.2,0,0.2-0.1c0,0,0.1-0.1,0.1-0.1
		c0-0.1-0.1-0.2-0.3-0.2c-0.1,0-0.1,0-0.2,0c-0.3-0.1-0.6-0.2-0.7-0.4c-0.2-0.2-0.2-0.4-0.2-0.6c0-0.4,0.2-0.7,0.5-0.9
		c0.3-0.2,0.7-0.4,1.2-0.4c0.3,0,0.5,0,0.7,0.1c0.2,0.1,0.4,0.1,0.6,0.2l-0.4,1.1c-0.2-0.1-0.3-0.2-0.4-0.2
		c-0.1-0.1-0.2-0.1-0.3-0.1c-0.1,0-0.1,0-0.2,0c0,0-0.1,0.1-0.1,0.1c0,0.1,0.1,0.2,0.4,0.2c0,0,0.1,0,0.1,0c0,0,0.1,0,0.1,0
		c0.4,0.1,0.6,0.2,0.8,0.4c0.2,0.2,0.3,0.4,0.3,0.6c0,0.4-0.2,0.7-0.5,1c-0.3,0.3-0.8,0.4-1.3,0.4c-0.3,0-0.6,0-0.9-0.1
		C48.6,19.6,48.3,19.5,48,19.3z"/>
	<path class="st0" d="M57.4,17c0,0.1,0,0.4-0.1,0.7c0,0,0,0,0,0.1c0,0,0,0,0,0.1l-0.4,1.7h-1.6l-1.5-5.1h1.8l0.4,2.2
		c0,0.1,0,0.3,0.1,0.5c0,0.1,0,0.3,0,0.5h0c0-0.2,0-0.5,0.1-0.8c0,0,0,0,0,0c0,0,0,0,0,0l0.5-2.4h1.3l0.5,2.4l0,0.1
		c0.1,0.3,0.1,0.6,0.1,0.8h0c0-0.2,0-0.4,0-0.5c0-0.1,0-0.2,0-0.3c0-0.1,0-0.2,0-0.3l0.4-2.2h1.8l-1.5,5.1H58l-0.4-1.7c0,0,0,0,0,0
		s0,0,0,0c0,0,0,0,0,0C57.5,17.4,57.5,17.1,57.4,17L57.4,17z"/>
	<path class="st0" d="M61.3,19.6V16h1.7v3.6H61.3z M62.7,15.1c0,0.1,0,0.2-0.1,0.3c-0.1,0.1-0.2,0.1-0.3,0.1c-0.1,0-0.3,0-0.4-0.1
		c-0.1-0.1-0.1-0.2-0.1-0.3c0-0.1,0-0.2,0.1-0.3c0.1-0.1,0.2-0.1,0.4-0.1c0.2,0,0.3,0,0.3,0.1C62.6,14.9,62.7,15,62.7,15.1z"/>
	<path class="st0" d="M63.9,19.6v-5.4h1.7v3.2l0.7-1.4h2l-1.3,1.7l1.3,1.9h-2.1l-0.8-1.3v1.3H63.9z"/>
	<path class="st0" d="M68.8,19.6V16h1.7v3.6H68.8z M70.1,15.1c0,0.1,0,0.2-0.1,0.3c-0.1,0.1-0.2,0.1-0.3,0.1c-0.1,0-0.3,0-0.4-0.1
		c-0.1-0.1-0.1-0.2-0.1-0.3c0-0.1,0-0.2,0.1-0.3c0.1-0.1,0.2-0.1,0.4-0.1c0.2,0,0.3,0,0.3,0.1C70.1,14.9,70.1,15,70.1,15.1z"/>
</g>
</svg>
